<svg width="36" height="40" viewBox="0 0 36 40" fill="none" xmlns="http://www.w3.org/2000/svg">
<g id="mitten-solid 1" clip-path="url(#clip0_127_576)">
<path id="Vector" d="M27.833 30H5.33301L0.754883 13.9766C0.473633 13 0.333008 11.9844 0.333008 10.9609C0.333008 4.90625 5.23926 0 11.2939 0H11.5596C16.7158 0 21.208 3.50781 22.458 8.50781L24.9111 18.3359L26.2861 16.7656C27.2705 15.6406 28.6846 15 30.1768 15H30.3955C33.1221 15 35.3408 17.2109 35.3408 19.9453C35.3408 21.1875 34.8721 22.3828 34.0283 23.2969L27.833 30ZM2.83301 35C2.83301 33.6172 3.9502 32.5 5.33301 32.5H27.833C29.2158 32.5 30.333 33.6172 30.333 35V37.5C30.333 38.8828 29.2158 40 27.833 40H5.33301C3.9502 40 2.83301 38.8828 2.83301 37.5V35Z" fill="#FDF2F2"/>
</g>
<defs>
<clipPath id="clip0_127_576">
<rect width="35" height="40" fill="white" transform="translate(0.333008)"/>
</clipPath>
</defs>
</svg>
