<svg width="83" height="99" viewBox="0 0 83 99" fill="none" xmlns="http://www.w3.org/2000/svg">
<path d="M1.33301 24.5862L40.2985 2L81.333 25.7931V73.3793L40.2985 97L1.33301 74.4138V24.5862Z" fill="#F16425" stroke="#FDF2F2" stroke-width="2"/>
<g clip-path="url(#clip0_127_574)">
<path d="M50.833 57H28.333L23.7549 40.9766C23.4736 40 23.333 38.9844 23.333 37.9609C23.333 31.9062 28.2393 27 34.2939 27H34.5596C39.7158 27 44.208 30.5078 45.458 35.5078L47.9111 45.3359L49.2861 43.7656C50.2705 42.6406 51.6846 42 53.1768 42H53.3955C56.1221 42 58.3408 44.2109 58.3408 46.9453C58.3408 48.1875 57.8721 49.3828 57.0283 50.2969L50.833 57ZM25.833 62C25.833 60.6172 26.9502 59.5 28.333 59.5H50.833C52.2158 59.5 53.333 60.6172 53.333 62V64.5C53.333 65.8828 52.2158 67 50.833 67H28.333C26.9502 67 25.833 65.8828 25.833 64.5V62Z" fill="#FDF2F2"/>
</g>
<defs>
<clipPath id="clip0_127_574">
<rect width="35" height="40" fill="white" transform="translate(23.333 27)"/>
</clipPath>
</defs>
</svg>
