<svg width="46" height="40" viewBox="0 0 46 40" fill="none" xmlns="http://www.w3.org/2000/svg">
<g id="helmet-safety-solid 2" clip-path="url(#clip0_127_567)">
<path id="Vector" d="M20.667 2.5C19.2842 2.5 18.167 3.61719 18.167 5V5.17969V12.9609C18.167 13.3984 17.8154 13.75 17.3779 13.75C17.0967 13.75 16.8311 13.6016 16.6904 13.3516L12.9404 6.79688C7.15137 9.64844 3.16699 15.6094 3.16699 22.5V27.5H43.167V22.3125C43.0967 15.5 39.1279 9.625 33.3936 6.79688L29.6436 13.3516C29.5029 13.6016 29.2373 13.75 28.9561 13.75C28.5186 13.75 28.167 13.3984 28.167 12.9609V5.17969V5C28.167 3.61719 27.0498 2.5 25.667 2.5H20.667ZM1.96387 30C1.24512 30 0.666992 30.5781 0.666992 31.2969C0.666992 31.6641 0.823242 32.0156 1.12012 32.2266C2.81543 33.4688 9.40137 37.5 23.167 37.5C36.9326 37.5 43.5186 33.4688 45.2139 32.2266C45.5107 32.0078 45.667 31.6641 45.667 31.2969C45.667 30.5781 45.0889 30 44.3701 30H1.96387Z" fill="#FDF2F2"/>
</g>
<defs>
<clipPath id="clip0_127_567">
<rect width="45" height="40" fill="white" transform="translate(0.666992)"/>
</clipPath>
</defs>
</svg>
