<svg width="166" height="166" viewBox="0 0 166 166" fill="none" xmlns="http://www.w3.org/2000/svg">
<g clip-path="url(#clip0_217_759)">
<path d="M16.2097 21.359C7.68107 21.359 0.761597 28.2785 0.761597 36.8071C0.761597 41.6669 3.04663 46.2369 6.94085 49.1656L76.9723 101.689C80.6413 104.425 85.6619 104.425 89.3309 101.689L159.362 49.1656C163.257 46.2369 165.542 41.6669 165.542 36.8071C165.542 28.2785 158.622 21.359 150.093 21.359L16.2097 21.359ZM0.761597 57.4046L0.761597 124.347C0.761597 135.707 9.99829 144.944 21.3591 144.944H144.944C156.305 144.944 165.542 135.707 165.542 124.347V57.4046L95.5101 109.928C88.1722 115.432 78.131 115.432 70.7931 109.928L0.761597 57.4046Z" fill="#FDF2F2" fill-opacity="0.3"/>
</g>
<defs>
<clipPath id="clip0_217_759">
<rect width="164.78" height="164.78" fill="white" transform="translate(0.761597 0.761475)"/>
</clipPath>
</defs>
</svg>
