<svg width="82" height="99" viewBox="0 0 82 99" fill="none" xmlns="http://www.w3.org/2000/svg">
<path d="M1 24.5862L39.9655 2L81 25.7931V73.3793L39.9655 97L1 74.4138V24.5862Z" fill="#F16425" stroke="white" stroke-width="2"/>
<g clip-path="url(#clip0_127_556)">
<path d="M47.7913 62C48.6663 59.0924 50.4801 56.6133 52.2757 54.1432C52.7497 53.4961 53.2236 52.849 53.6793 52.1927C55.484 49.5951 56.5413 46.4505 56.5413 43.0508C56.5413 34.1823 49.359 27 40.4997 27C31.6403 27 24.458 34.1823 24.458 43.0417C24.458 46.4414 25.5153 49.5951 27.32 52.1836C27.7757 52.8398 28.2497 53.487 28.7236 54.1341C30.5283 56.6042 32.3421 59.0924 33.208 61.9909H47.7913V62ZM40.4997 73.6667C44.5283 73.6667 47.7913 70.4036 47.7913 66.375V64.9167H33.208V66.375C33.208 70.4036 36.471 73.6667 40.4997 73.6667ZM33.208 43.0417C33.208 43.8438 32.5518 44.5 31.7497 44.5C30.9476 44.5 30.2913 43.8438 30.2913 43.0417C30.2913 37.3997 34.8577 32.8333 40.4997 32.8333C41.3017 32.8333 41.958 33.4896 41.958 34.2917C41.958 35.0938 41.3017 35.75 40.4997 35.75C36.471 35.75 33.208 39.013 33.208 43.0417Z" fill="#FDF2F2"/>
</g>
<defs>
<clipPath id="clip0_127_556">
<rect width="35" height="46.6667" fill="white" transform="translate(23 27)"/>
</clipPath>
</defs>
</svg>
