<svg width="199" height="158" viewBox="0 0 199 158" fill="none" xmlns="http://www.w3.org/2000/svg">
<g id="phone-solid" clip-path="url(#clip0_78_1005)">
<path id="Vector" d="M142.171 40.4624C144.17 34.2997 141.267 27.6359 135.41 24.8821L108.849 12.3807C103.585 9.92218 97.3228 11.2641 93.5635 15.6718C41.8953 76.2531 49.1224 167.269 109.704 218.937C114.111 222.696 120.507 223.033 125.317 219.775L149.572 203.238C154.921 199.594 156.737 192.556 153.79 186.786L138.636 156.942C136.065 151.873 130.455 149.076 124.876 150.113L104.687 153.748C94.4027 130.891 92.3492 105.029 98.8976 80.8356L119.386 81.2633C125.08 81.3819 130.157 77.7599 131.896 72.3484L142.151 40.4869L142.171 40.4624Z" fill="#FDF2F2" fill-opacity="0.3"/>
</g>
<defs>
<clipPath id="clip0_78_1005">
<rect width="164.78" height="164.78" fill="white" transform="translate(106.93) rotate(40.46)"/>
</clipPath>
</defs>
</svg>
