<svg width="199" height="158" viewBox="0 0 199 158" fill="none" xmlns="http://www.w3.org/2000/svg">
<g id="envelope-solid" clip-path="url(#clip0_78_408)">
<path id="Vector" d="M105.316 25.6963C98.8274 20.1619 89.0725 20.9365 83.5381 27.4256C80.3845 31.1232 79.1575 36.0831 80.22 40.8385L99.4206 126.246C100.437 130.708 104.257 133.966 108.824 134.266L196.191 139.747C201.055 140.046 205.759 138.052 208.912 134.354C214.447 127.865 213.672 118.11 207.183 112.576L105.316 25.6963ZM70.172 43.0974L26.7323 94.0307C19.3601 102.675 20.394 115.696 29.038 123.069L123.069 203.265C131.713 210.637 144.734 209.603 152.107 200.959L195.546 150.026L108.179 144.544C99.0245 143.97 91.3845 137.454 89.3726 128.505L70.172 43.0974Z" fill="#FDF2F2" fill-opacity="0.3"/>
</g>
<defs>
<clipPath id="clip0_78_408">
<rect width="164.78" height="164.78" fill="white" transform="translate(106.929) rotate(40.46)"/>
</clipPath>
</defs>
</svg>
