<svg width="166" height="166" viewBox="0 0 166 166" fill="none" xmlns="http://www.w3.org/2000/svg">
<g clip-path="url(#clip0_217_762)">
<path d="M53.8322 8.67869C51.3541 2.69255 44.8208 -0.493631 38.5772 1.2121L10.2556 8.93616C4.65569 10.481 0.761475 15.566 0.761475 21.359C0.761475 100.981 65.3218 165.542 144.944 165.542C150.737 165.542 155.822 161.647 157.367 156.047L165.091 127.726C166.797 121.482 163.61 114.949 157.624 112.471L126.728 99.5973C121.482 97.4089 115.399 98.9215 111.827 103.331L98.8249 119.197C76.1676 108.48 57.823 90.1354 47.1058 67.4781L62.9724 54.5081C67.3815 50.9036 68.8941 44.8531 66.7057 39.6071L53.8322 8.71088V8.67869Z" fill="#FDF2F2" fill-opacity="0.3"/>
</g>
<defs>
<clipPath id="clip0_217_762">
<rect width="164.78" height="164.78" fill="white" transform="translate(0.761475 0.761475)"/>
</clipPath>
</defs>
</svg>
