<svg width="199" height="158" viewBox="0 0 199 158" fill="none" xmlns="http://www.w3.org/2000/svg">
<g id="pen-to-square-solid 1" clip-path="url(#clip0_112_545)">
<path id="Vector" d="M217.88 103.805C217.091 93.8686 208.422 86.4755 198.486 87.2645L184.85 88.3244L188.377 132.743L202.034 131.659C211.97 130.87 219.363 122.201 218.574 112.265L217.88 103.805ZM98.6681 95.1904C95.9005 95.4102 93.1832 96.2652 90.7887 97.7337L64.995 113.297C62.4889 114.797 61.068 117.603 61.2777 120.532C61.4874 123.46 63.3542 125.983 66.0903 127.09L94.0167 138.387C96.5885 139.438 99.4066 139.854 102.199 139.655L178.126 133.603L174.596 89.1386L98.6681 95.1904ZM117.072 35.7209C104.093 24.6522 84.5836 26.2013 73.5149 39.1795L20.0506 101.867C8.9818 114.845 10.531 134.355 23.5092 145.424L86.1964 198.888C99.1746 209.957 118.684 208.407 129.753 195.429L149.802 171.922C153.499 167.587 152.984 161.099 148.649 157.403C144.315 153.706 137.827 154.221 134.13 158.555L114.081 182.063C110.385 186.397 103.897 186.913 99.5624 183.216L36.8752 129.752C32.541 126.055 32.0258 119.567 35.7224 115.233L89.1867 52.5456C92.8832 48.2114 99.3714 47.6962 103.706 51.3927L127.213 71.4418C131.548 75.1384 138.036 74.6232 141.732 70.289C145.429 65.9548 144.914 59.4666 140.579 55.7701L117.072 35.7209Z" fill="#FDF2F2" fill-opacity="0.3"/>
</g>
<defs>
<clipPath id="clip0_112_545">
<rect width="164.78" height="164.78" fill="white" transform="translate(106.93) rotate(40.46)"/>
</clipPath>
</defs>
</svg>
