<svg width="35" height="47" viewBox="0 0 35 47" fill="none" xmlns="http://www.w3.org/2000/svg">
<g id="lightbulb-solid 1" clip-path="url(#clip0_127_558)">
<path id="Vector" d="M24.7913 35C25.6663 32.0924 27.4801 29.6133 29.2757 27.1432C29.7497 26.4961 30.2236 25.849 30.6793 25.1927C32.484 22.5951 33.5413 19.4505 33.5413 16.0508C33.5413 7.18229 26.359 0 17.4997 0C8.6403 0 1.45801 7.18229 1.45801 16.0417C1.45801 19.4414 2.5153 22.5951 4.31999 25.1836C4.77571 25.8398 5.24967 26.487 5.72363 27.1341C7.52832 29.6042 9.34212 32.0924 10.208 34.9909H24.7913V35ZM17.4997 46.6667C21.5283 46.6667 24.7913 43.4036 24.7913 39.375V37.9167H10.208V39.375C10.208 43.4036 13.471 46.6667 17.4997 46.6667ZM10.208 16.0417C10.208 16.8438 9.55175 17.5 8.74967 17.5C7.94759 17.5 7.29134 16.8438 7.29134 16.0417C7.29134 10.3997 11.8577 5.83333 17.4997 5.83333C18.3017 5.83333 18.958 6.48958 18.958 7.29167C18.958 8.09375 18.3017 8.75 17.4997 8.75C13.471 8.75 10.208 12.013 10.208 16.0417Z" fill="#FDF2F2"/>
</g>
<defs>
<clipPath id="clip0_127_558">
<rect width="35" height="46.6667" fill="white"/>
</clipPath>
</defs>
</svg>
