<svg width="80" height="80" viewBox="0 0 80 80" fill="none" xmlns="http://www.w3.org/2000/svg">
<g id="pen-to-square-solid 2" clip-path="url(#clip0_112_550)">
<path id="Vector" d="M73.6875 3.39062C70.2656 -0.0312501 64.7344 -0.0312501 61.3125 3.39062L56.6094 8.07812L71.9063 23.375L76.6094 18.6719C80.0313 15.25 80.0313 9.71875 76.6094 6.29687L73.6875 3.39062ZM26.9375 37.7656C25.9844 38.7188 25.25 39.8906 24.8281 41.1875L20.2031 55.0625C19.75 56.4062 20.1094 57.8906 21.1094 58.9062C22.1094 59.9219 23.5938 60.2656 24.9531 59.8125L38.8281 55.1875C40.1094 54.7656 41.2813 54.0313 42.25 53.0781L68.3906 26.9219L53.0781 11.6094L26.9375 37.7656ZM15 10C6.71875 10 0 16.7188 0 25V65C0 73.2812 6.71875 80 15 80H55C63.2813 80 70 73.2812 70 65V50C70 47.2344 67.7656 45 65 45C62.2344 45 60 47.2344 60 50V65C60 67.7656 57.7656 70 55 70H15C12.2344 70 10 67.7656 10 65V25C10 22.2344 12.2344 20 15 20H30C32.7656 20 35 17.7656 35 15C35 12.2344 32.7656 10 30 10H15Z" fill="#F16425"/>
</g>
<defs>
<clipPath id="clip0_112_550">
<rect width="80" height="80" fill="white"/>
</clipPath>
</defs>
</svg>
