<svg width="25" height="25" viewBox="0 0 25 25" fill="none" xmlns="http://www.w3.org/2000/svg">
<g clip-path="url(#clip0_241_987)">
<path d="M8.05176 1.19983C7.67578 0.291628 6.68457 -0.19177 5.7373 0.0670189L1.44043 1.23889C0.59082 1.47327 0 2.24475 0 3.12366C0 15.2037 9.79492 24.9987 21.875 24.9987C22.7539 24.9987 23.5254 24.4078 23.7598 23.5582L24.9316 19.2614C25.1904 18.3141 24.707 17.3229 23.7988 16.9469L19.1113 14.9938C18.3154 14.6617 17.3926 14.8912 16.8506 15.5602L14.8779 17.9674C11.4404 16.3414 8.65722 13.5582 7.03125 10.1207L9.43847 8.15296C10.1074 7.60608 10.3369 6.68811 10.0049 5.89221L8.05176 1.20471V1.19983Z" fill="#FFFFF2"/>
</g>
<defs>
<clipPath id="clip0_241_987">
<rect width="25" height="25" fill="white"/>
</clipPath>
</defs>
</svg>
