<svg width="37" height="37" viewBox="0 0 37 37" fill="none" xmlns="http://www.w3.org/2000/svg">
<g id="pen-to-square-solid 2" clip-path="url(#clip0_224_1144)">
<path id="Vector" d="M34.0805 1.56831C32.4978 -0.0143066 29.9396 -0.0143066 28.357 1.56831L26.1818 3.73628L33.2566 10.8111L35.4318 8.63589C37.0145 7.05327 37.0145 4.49507 35.4318 2.91245L34.0805 1.56831ZM12.4586 17.4667C12.0178 17.9076 11.6781 18.4496 11.483 19.0494L9.34394 25.4665C9.13437 26.088 9.30059 26.7746 9.76309 27.2443C10.2256 27.714 10.9121 27.873 11.5408 27.6634L17.958 25.5244C18.5506 25.3292 19.0926 24.9896 19.5406 24.5488L31.6307 12.4515L24.5486 5.36948L12.4586 17.4667ZM6.9375 4.62515C3.10742 4.62515 0 7.73257 0 11.5626V30.0626C0 33.8927 3.10742 37.0001 6.9375 37.0001H25.4375C29.2676 37.0001 32.375 33.8927 32.375 30.0626V23.1251C32.375 21.846 31.3416 20.8126 30.0625 20.8126C28.7834 20.8126 27.75 21.846 27.75 23.1251V30.0626C27.75 31.3417 26.7166 32.3751 25.4375 32.3751H6.9375C5.6584 32.3751 4.625 31.3417 4.625 30.0626V11.5626C4.625 10.2835 5.6584 9.25014 6.9375 9.25014H13.875C15.1541 9.25014 16.1875 8.21675 16.1875 6.93764C16.1875 5.65854 15.1541 4.62515 13.875 4.62515H6.9375Z" fill="#FFFFF0"/>
</g>
<defs>
<clipPath id="clip0_224_1144">
<rect width="37" height="37" fill="white"/>
</clipPath>
</defs>
</svg>
