<svg width="599" height="276" viewBox="0 0 599 276" fill="none" xmlns="http://www.w3.org/2000/svg">
<path d="M513.376 72.8468C517.526 72.8087 524.385 71.724 526.595 75.7009C529.147 80.2941 531.75 84.8925 534.311 89.4872L549.088 115.83C551.094 111.417 572.369 74.7747 574.026 73.5348C575.441 72.4762 592.743 72.6987 595.358 73.1077L595.594 73.5688C595.34 76.3972 585.349 91.9677 583.122 95.6994C575.592 108.404 567.923 121.026 560.121 133.565C561.058 135.551 563.545 139.512 564.736 141.554L573.427 156.51C581.917 170.944 590.265 185.459 598.474 200.053C592.235 200.243 585.503 200.175 579.225 200.224L576.466 200.053C574.224 196.87 569.681 188.443 567.471 184.626C561.064 173.709 554.765 162.729 548.574 151.688C546.08 156.874 522.725 197.121 519.526 200.03C516.309 200.171 501.237 200.335 498.708 199.907L498.375 199.32C498.401 197.819 521.074 160.619 523.715 156.314C526.737 151.459 529.727 146.586 532.687 141.694C534.172 139.238 536.208 136.088 537.357 133.524C535.133 128.943 532.261 124.48 529.721 120.042L511.612 88.3774C508.832 83.4934 505.343 77.9832 502.959 73.0602C506.23 72.8719 510.026 72.9387 513.376 72.8468Z" fill="#F06524"/>
<path d="M417.961 72.8512L454.397 72.8627C458.287 72.8503 471.451 72.558 474.446 73.2505C475.412 74.8252 474.754 88.383 474.677 91.0291C457.977 91.0929 440.743 91.3214 424.076 91.1136C423.863 93.919 424.002 98.0874 424.011 101.055L424.109 121.538C439.957 121.104 457.954 122.132 473.495 121.262C473.179 127.267 473.215 133.706 473.271 139.72L441.987 139.775C436.214 139.785 429.76 139.925 424.052 139.711C423.73 146.329 424.011 155.398 424.026 162.184L424.017 181.775C429.754 181.988 436.749 181.81 442.572 181.807C453.348 181.83 464.128 181.793 474.907 181.697C475.079 187.608 474.588 194.44 474.94 200.091L404.538 200.156C404.109 195.634 404.292 189.168 404.31 184.49L404.381 159.281L404.334 72.9863L417.961 72.8512Z" fill="#F06524"/>
<path d="M333.01 72.8411C334.33 72.8056 336.581 72.9702 337.961 73.0287C337.61 99.0549 337.521 125.084 337.692 151.112C337.716 161.338 337.985 171.503 337.751 181.744C349.198 182.279 363.443 181.661 375.124 181.758C374.778 187.106 375.005 194.508 375.053 200.01C370.746 200.082 366.439 200.122 362.132 200.131C347.742 200.119 332.413 200.455 318.136 200.113C317.717 190.336 317.909 179.429 317.917 169.579L317.979 120.057L317.977 89.5837C317.982 84.8484 317.782 77.3754 318.287 73.0302C321.722 72.6995 329.167 72.9247 333.01 72.8411Z" fill="#F06524"/>
<path d="M266.923 72.8505C267.676 72.8165 270.065 72.9971 270.926 73.0412L270.913 185.401C270.914 189.486 270.739 196.255 271.266 200.112L256.785 200.173L251.514 200.212C250.964 184.549 251.427 166.105 251.436 150.255L251.45 73.011C256.585 72.8748 261.742 72.9959 266.923 72.8505Z" fill="#F06524"/>
<path d="M112.544 0H112.882C114.195 1.12146 119.168 3.81385 121.022 4.86923C126.539 7.97692 132.036 11.1208 137.512 14.3007L194.85 47.4563L219.27 61.4099C222.706 63.4036 228.347 66.4883 231.437 68.6313C231.898 82.889 231.644 99.5415 231.652 113.915L231.791 206.687C223.026 211.162 212.918 217.376 204.219 222.344L143.597 257.372L124.53 268.491C121.248 270.395 116.114 273.487 112.697 275.018C105.12 271.584 94.0577 264.642 86.4497 260.326L23.4992 223.981L8.17554 215.182C6.20051 214.042 1.94711 211.436 0 210.591V64.7434C2.70794 63.5612 10.2397 58.4168 13.3904 56.5882L52.5942 33.7747L96.0334 8.78634C99.3822 6.87029 102.768 5.01952 106.188 3.23513C108.167 2.21723 110.773 1.11513 112.544 0ZM111.631 199.783C111.3 194.474 111.431 188.254 111.428 182.872L111.399 126.686C111.397 121.956 111.23 115.734 111.456 111.11C117.339 116.647 123.949 123.972 129.654 129.894C141.782 142.351 153.822 154.895 165.772 167.523C173.92 175.885 182.001 184.312 190.013 192.805C193.9 196.847 200.116 202.917 203.544 207.192L203.831 207.216C204.184 204.538 203.783 197.575 203.791 194.687C203.811 187.91 203.8 181.075 203.797 174.295L203.799 108.499C203.795 98.0067 203.382 83.2611 203.926 73.0082L184.957 73.0472L184.949 131.924C184.955 140.354 185.441 153.286 184.902 161.238C156.267 132.04 128.306 102.017 100.114 72.3872C97.7622 69.9155 94.9924 66.7703 92.453 64.5634C91.9955 69.4039 92.3449 78.576 92.3877 83.8425L92.4359 115.478L92.4268 171.589C92.4232 180.553 92.1337 191.153 92.4309 199.964C98.8309 199.938 105.231 199.877 111.631 199.783Z" fill="#F06524"/>
</svg>
