<svg width="539" height="579" viewBox="0 0 539 579" fill="none" xmlns="http://www.w3.org/2000/svg">
<rect width="539" height="579" fill="#FDFAF7"/>
<path d="M134.74 32.9329L14.2856 106.253L14.2856 251.845L134.74 323.07L255.718 251.845V106.253L134.74 32.9329Z" fill="#B34819"/>
<path d="M134.279 55.4265L32.5029 117.377L32.5029 240.393L134.279 300.573L236.497 240.393V117.377L134.279 55.4265Z" stroke="#7A2D0D" stroke-width="2"/>
<path d="M168.719 158.562C168.472 158.747 168.192 158.881 167.894 158.958C167.596 159.034 167.286 159.051 166.981 159.008C166.676 158.964 166.383 158.861 166.118 158.704C165.853 158.547 165.622 158.34 165.437 158.094C164.025 156.195 162.186 154.654 160.069 153.596C157.952 152.537 155.617 151.991 153.25 152C152.789 152 152.338 151.864 151.954 151.609C151.57 151.354 151.27 150.992 151.091 150.567C150.969 150.279 150.906 149.969 150.906 149.656C150.906 149.343 150.969 149.033 151.091 148.745C151.27 148.32 151.57 147.958 151.954 147.703C152.338 147.448 152.789 147.312 153.25 147.312C154.565 147.312 155.854 146.943 156.97 146.248C158.085 145.552 158.984 144.557 159.563 143.376C160.142 142.195 160.378 140.876 160.244 139.568C160.111 138.259 159.613 137.015 158.808 135.975C158.002 134.936 156.922 134.143 155.688 133.686C154.455 133.23 153.118 133.129 151.83 133.395C150.542 133.66 149.355 134.281 148.402 135.188C147.449 136.094 146.77 137.25 146.441 138.523C146.364 138.822 146.229 139.102 146.044 139.348C145.859 139.594 145.627 139.801 145.362 139.957C145.097 140.114 144.803 140.216 144.498 140.259C144.193 140.302 143.883 140.285 143.585 140.208C143.287 140.131 143.007 139.996 142.761 139.811C142.515 139.626 142.307 139.394 142.151 139.129C141.995 138.863 141.892 138.57 141.849 138.265C141.806 137.96 141.823 137.65 141.9 137.351C142.357 135.586 143.219 133.951 144.418 132.577C145.617 131.203 147.121 130.128 148.809 129.438C150.497 128.747 152.322 128.46 154.141 128.599C155.959 128.738 157.72 129.3 159.283 130.239C160.846 131.179 162.168 132.47 163.145 134.011C164.121 135.551 164.724 137.298 164.906 139.112C165.089 140.927 164.845 142.759 164.195 144.463C163.544 146.167 162.505 147.695 161.16 148.927C164.347 150.307 167.117 152.496 169.196 155.278C169.381 155.525 169.515 155.806 169.591 156.105C169.667 156.404 169.683 156.714 169.639 157.019C169.594 157.324 169.49 157.618 169.332 157.883C169.175 158.147 168.966 158.378 168.719 158.562ZM152.934 176.609C153.103 176.876 153.217 177.174 153.268 177.486C153.32 177.798 153.307 178.117 153.232 178.424C153.157 178.731 153.02 179.02 152.831 179.273C152.641 179.526 152.402 179.738 152.128 179.896C151.855 180.054 151.552 180.155 151.238 180.193C150.924 180.231 150.606 180.206 150.303 180.118C149.999 180.03 149.716 179.881 149.472 179.681C149.227 179.481 149.025 179.233 148.879 178.953C147.402 176.453 145.3 174.381 142.778 172.942C140.257 171.503 137.403 170.746 134.5 170.746C131.597 170.746 128.743 171.503 126.222 172.942C123.7 174.381 121.597 176.453 120.121 178.953C119.974 179.233 119.773 179.481 119.528 179.681C119.283 179.881 119.001 180.03 118.697 180.118C118.394 180.206 118.075 180.231 117.762 180.193C117.448 180.155 117.145 180.054 116.871 179.896C116.598 179.738 116.359 179.526 116.169 179.273C115.98 179.02 115.843 178.731 115.768 178.424C115.693 178.117 115.68 177.798 115.732 177.486C115.783 177.174 115.897 176.876 116.066 176.609C118.339 172.705 121.803 169.633 125.951 167.844C123.617 166.057 121.902 163.583 121.046 160.771C120.191 157.959 120.238 154.949 121.181 152.165C122.125 149.381 123.917 146.962 126.306 145.25C128.695 143.537 131.56 142.616 134.5 142.616C137.439 142.616 140.305 143.537 142.694 145.25C145.083 146.962 146.875 149.381 147.819 152.165C148.762 154.949 148.809 157.959 147.954 160.771C147.098 163.583 145.383 166.057 143.049 167.844C147.197 169.633 150.661 172.705 152.934 176.609ZM134.5 166.062C136.354 166.062 138.167 165.513 139.708 164.482C141.25 163.452 142.452 161.988 143.161 160.275C143.871 158.562 144.057 156.677 143.695 154.858C143.333 153.04 142.44 151.369 141.129 150.058C139.818 148.747 138.147 147.854 136.329 147.493C134.51 147.131 132.625 147.316 130.912 148.026C129.199 148.736 127.735 149.937 126.705 151.479C125.675 153.021 125.125 154.833 125.125 156.687C125.125 159.174 126.113 161.558 127.871 163.317C129.629 165.075 132.014 166.062 134.5 166.062ZM118.094 149.656C118.094 149.035 117.847 148.438 117.407 147.999C116.968 147.559 116.372 147.312 115.75 147.312C114.435 147.312 113.146 146.943 112.03 146.248C110.914 145.552 110.016 144.557 109.437 143.376C108.858 142.195 108.622 140.876 108.756 139.568C108.889 138.259 109.387 137.015 110.192 135.975C110.997 134.936 112.078 134.143 113.312 133.686C114.545 133.23 115.882 133.129 117.17 133.395C118.458 133.66 119.645 134.281 120.598 135.188C121.55 136.094 122.23 137.25 122.559 138.523C122.714 139.126 123.102 139.641 123.638 139.957C124.174 140.273 124.813 140.363 125.415 140.208C126.017 140.053 126.533 139.664 126.849 139.129C127.165 138.593 127.255 137.954 127.1 137.351C126.643 135.586 125.781 133.951 124.582 132.577C123.382 131.203 121.879 130.128 120.191 129.438C118.503 128.747 116.678 128.46 114.859 128.599C113.041 128.738 111.28 129.3 109.717 130.239C108.154 131.179 106.831 132.47 105.855 134.011C104.879 135.551 104.276 137.298 104.093 139.112C103.911 140.927 104.155 142.759 104.805 144.463C105.456 146.167 106.495 147.695 107.84 148.927C104.656 150.308 101.889 152.497 99.8124 155.278C99.4391 155.776 99.2785 156.401 99.3662 157.016C99.4538 157.632 99.7824 158.188 100.28 158.561C100.777 158.934 101.402 159.095 102.018 159.007C102.633 158.92 103.189 158.591 103.562 158.094C104.975 156.195 106.814 154.654 108.931 153.596C111.047 152.537 113.383 151.991 115.75 152C116.372 152 116.968 151.753 117.407 151.313C117.847 150.874 118.094 150.278 118.094 149.656Z" fill="#FDFAF7"/>
<path d="M65.2342 215.5V201.5H74.0342V203.9H67.8742V207.28H73.5542V209.68H67.8742V215.5H65.2342ZM74.0789 215.5L77.7589 201.5H82.3589L86.0389 215.5H83.3189L82.5589 212.42H77.5589L76.7989 215.5H74.0789ZM78.1789 209.98H81.9389L80.2389 203.16H79.8789L78.1789 209.98ZM87.7146 215.5V201.5H92.6146L95.0346 213.7H95.3946L97.8146 201.5H102.715V215.5H100.155V203.44H99.7946L97.3946 215.5H93.0346L90.6346 203.44H90.2746V215.5H87.7146ZM105.351 215.5V201.5H107.991V215.5H105.351ZM110.625 215.5V201.5H113.265V213.1H119.665V215.5H110.625ZM122.779 215.5V210.68L118.019 201.5H120.959L123.919 207.5H124.279L127.239 201.5H130.179L125.419 210.68V215.5H122.779ZM129.747 211.54V209.26H135.667V211.54H129.747ZM137.94 215.5V213.18H139.78V203.82H137.94V201.5H143.7C145.58 201.5 147.006 201.98 147.98 202.94C148.966 203.887 149.46 205.3 149.46 207.18V209.82C149.46 211.7 148.966 213.12 147.98 214.08C147.006 215.027 145.58 215.5 143.7 215.5H137.94ZM142.42 213.1H143.74C144.806 213.1 145.586 212.82 146.08 212.26C146.573 211.7 146.82 210.913 146.82 209.9V207.1C146.82 206.073 146.573 205.287 146.08 204.74C145.586 204.18 144.806 203.9 143.74 203.9H142.42V213.1ZM151.66 215.5V201.5H157.74C158.62 201.5 159.387 201.653 160.04 201.96C160.693 202.267 161.2 202.7 161.56 203.26C161.92 203.82 162.1 204.48 162.1 205.24V205.48C162.1 206.32 161.9 207 161.5 207.52C161.1 208.04 160.607 208.42 160.02 208.66V209.02C160.553 209.047 160.967 209.233 161.26 209.58C161.553 209.913 161.7 210.36 161.7 210.92V215.5H159.06V211.3C159.06 210.98 158.973 210.72 158.8 210.52C158.64 210.32 158.367 210.22 157.98 210.22H154.3V215.5H151.66ZM154.3 207.82H157.46C158.087 207.82 158.573 207.653 158.92 207.32C159.28 206.973 159.46 206.52 159.46 205.96V205.76C159.46 205.2 159.287 204.753 158.94 204.42C158.593 204.073 158.1 203.9 157.46 203.9H154.3V207.82ZM164.297 215.5V201.5H166.937V215.5H164.297ZM172.17 215.5L168.61 201.5H171.33L174.29 213.8H174.57L177.53 201.5H180.25L176.69 215.5H172.17ZM181.933 215.5V201.5H190.933V203.9H184.573V207.24H190.373V209.64H184.573V213.1H191.053V215.5H181.933ZM193.008 215.5V201.5H198.028L200.808 213.7H201.168V201.5H203.768V215.5H198.748L195.968 203.3H195.608V215.5H193.008ZM102.815 237.5L99.2546 223.5H101.975L104.935 235.8H105.215L108.175 223.5H110.895L107.335 237.5H102.815ZM110.7 237.5L114.38 223.5H118.98L122.66 237.5H119.94L119.18 234.42H114.18L113.42 237.5H110.7ZM114.8 231.98H118.56L116.86 225.16H116.5L114.8 231.98ZM124.336 237.5V223.5H126.976V235.1H133.376V237.5H124.336ZM140.185 237.78C139.038 237.78 138.052 237.573 137.225 237.16C136.412 236.733 135.785 236.133 135.345 235.36C134.918 234.573 134.705 233.647 134.705 232.58V223.5H137.345V232.66C137.345 233.513 137.585 234.187 138.065 234.68C138.558 235.173 139.265 235.42 140.185 235.42C141.105 235.42 141.805 235.173 142.285 234.68C142.778 234.187 143.025 233.513 143.025 232.66V223.5H145.665V232.58C145.665 233.647 145.445 234.573 145.005 235.36C144.578 236.133 143.952 236.733 143.125 237.16C142.312 237.573 141.332 237.78 140.185 237.78ZM148.222 237.5V223.5H157.222V225.9H150.862V229.24H156.662V231.64H150.862V235.1H157.342V237.5H148.222ZM164.157 237.78C163.077 237.78 162.123 237.587 161.297 237.2C160.47 236.813 159.823 236.26 159.357 235.54C158.89 234.82 158.657 233.953 158.657 232.94V232.38H161.257V232.94C161.257 233.78 161.517 234.413 162.037 234.84C162.557 235.253 163.263 235.46 164.157 235.46C165.063 235.46 165.737 235.28 166.177 234.92C166.63 234.56 166.857 234.1 166.857 233.54C166.857 233.153 166.743 232.84 166.517 232.6C166.303 232.36 165.983 232.167 165.557 232.02C165.143 231.86 164.637 231.713 164.037 231.58L163.577 231.48C162.617 231.267 161.79 231 161.097 230.68C160.417 230.347 159.89 229.913 159.517 229.38C159.157 228.847 158.977 228.153 158.977 227.3C158.977 226.447 159.177 225.72 159.577 225.12C159.99 224.507 160.563 224.04 161.297 223.72C162.043 223.387 162.917 223.22 163.917 223.22C164.917 223.22 165.803 223.393 166.577 223.74C167.363 224.073 167.977 224.58 168.417 225.26C168.87 225.927 169.097 226.767 169.097 227.78V228.38H166.497V227.78C166.497 227.247 166.39 226.82 166.177 226.5C165.977 226.167 165.683 225.927 165.297 225.78C164.91 225.62 164.45 225.54 163.917 225.54C163.117 225.54 162.523 225.693 162.137 226C161.763 226.293 161.577 226.7 161.577 227.22C161.577 227.567 161.663 227.86 161.837 228.1C162.023 228.34 162.297 228.54 162.657 228.7C163.017 228.86 163.477 229 164.037 229.12L164.497 229.22C165.497 229.433 166.363 229.707 167.097 230.04C167.843 230.373 168.423 230.813 168.837 231.36C169.25 231.907 169.457 232.607 169.457 233.46C169.457 234.313 169.237 235.067 168.797 235.72C168.37 236.36 167.757 236.867 166.957 237.24C166.17 237.6 165.237 237.78 164.157 237.78Z" fill="#FDFAF7"/>
<path d="M269.74 270.933L149.286 344.253V489.845L269.74 561.07L390.718 489.845V344.253L269.74 270.933Z" fill="#4A1A05"/>
<path d="M269.279 293.427L167.503 355.377V478.393L269.279 538.573L371.497 478.393V355.377L269.279 293.427Z" stroke="#A03C12" stroke-width="2"/>
<path d="M304.548 366.53C304.514 365.957 304.271 365.416 303.865 365.01C303.459 364.604 302.918 364.361 302.345 364.327C287.181 363.448 275.005 368.06 269.772 376.696C266.315 382.406 266.321 389.341 269.726 395.956C267.788 398.263 266.372 400.961 265.574 403.866L260.808 399.082C263.099 394.298 263.011 389.312 260.515 385.169C256.647 378.785 247.721 375.363 236.638 376.014C236.064 376.047 235.523 376.29 235.117 376.696C234.711 377.102 234.468 377.644 234.435 378.217C233.781 389.3 237.206 398.227 243.59 402.094C245.696 403.381 248.117 404.062 250.586 404.063C252.982 404.033 255.341 403.465 257.488 402.401L264.812 409.726V418.125C264.812 418.747 265.059 419.343 265.499 419.782C265.938 420.222 266.535 420.469 267.156 420.469C267.778 420.469 268.374 420.222 268.814 419.782C269.253 419.343 269.5 418.747 269.5 418.125V409.485C269.49 405.757 270.758 402.137 273.095 399.232C276.109 400.807 279.452 401.65 282.854 401.692C286.142 401.703 289.369 400.805 292.179 399.097C300.815 393.87 305.438 381.694 304.548 366.53ZM246.007 398.086C241.513 395.364 238.97 388.922 239.031 380.625C247.328 380.555 253.77 383.107 256.492 387.601C257.913 389.944 258.145 392.678 257.213 395.493L250.062 388.342C249.618 387.921 249.028 387.69 248.417 387.697C247.806 387.705 247.222 387.952 246.79 388.384C246.358 388.816 246.111 389.4 246.104 390.011C246.096 390.622 246.327 391.212 246.748 391.655L253.899 398.807C251.084 399.738 248.353 399.507 246.007 398.086ZM289.75 395.092C285.824 397.468 281.21 397.65 276.522 395.678L292.252 379.945C292.673 379.502 292.904 378.912 292.896 378.301C292.889 377.69 292.642 377.106 292.21 376.674C291.778 376.242 291.194 375.995 290.583 375.988C289.972 375.98 289.382 376.211 288.938 376.632L273.206 392.344C271.226 387.656 271.404 383.039 273.792 379.116C277.876 372.378 287.562 368.622 299.963 368.912C300.244 381.311 296.494 391.008 289.75 395.092Z" fill="#FDFAF7"/>
<path d="M184.414 453.5V451.18H186.254V441.82H184.414V439.5H191.614C192.468 439.5 193.208 439.647 193.834 439.94C194.474 440.22 194.968 440.627 195.314 441.16C195.674 441.68 195.854 442.307 195.854 443.04V443.24C195.854 443.88 195.734 444.407 195.494 444.82C195.254 445.22 194.968 445.533 194.634 445.76C194.314 445.973 194.008 446.127 193.714 446.22V446.58C194.008 446.66 194.328 446.813 194.674 447.04C195.021 447.253 195.314 447.567 195.554 447.98C195.808 448.393 195.934 448.933 195.934 449.6V449.8C195.934 450.573 195.754 451.24 195.394 451.8C195.034 452.347 194.534 452.767 193.894 453.06C193.268 453.353 192.534 453.5 191.694 453.5H184.414ZM188.894 451.1H191.374C191.948 451.1 192.408 450.96 192.754 450.68C193.114 450.4 193.294 450 193.294 449.48V449.28C193.294 448.76 193.121 448.36 192.774 448.08C192.428 447.8 191.961 447.66 191.374 447.66H188.894V451.1ZM188.894 445.26H191.334C191.881 445.26 192.328 445.12 192.674 444.84C193.034 444.56 193.214 444.173 193.214 443.68V443.48C193.214 442.973 193.041 442.587 192.694 442.32C192.348 442.04 191.894 441.9 191.334 441.9H188.894V445.26ZM203.495 453.78C202.349 453.78 201.362 453.573 200.535 453.16C199.722 452.733 199.095 452.133 198.655 451.36C198.229 450.573 198.015 449.647 198.015 448.58V439.5H200.655V448.66C200.655 449.513 200.895 450.187 201.375 450.68C201.869 451.173 202.575 451.42 203.495 451.42C204.415 451.42 205.115 451.173 205.595 450.68C206.089 450.187 206.335 449.513 206.335 448.66V439.5H208.975V448.58C208.975 449.647 208.755 450.573 208.315 451.36C207.889 452.133 207.262 452.733 206.435 453.16C205.622 453.573 204.642 453.78 203.495 453.78ZM211.533 453.5V439.5H214.173V453.5H211.533ZM216.806 453.5V439.5H219.446V451.1H225.846V453.5H216.806ZM227.246 453.5V451.18H229.086V441.82H227.246V439.5H233.006C234.886 439.5 236.313 439.98 237.286 440.94C238.273 441.887 238.766 443.3 238.766 445.18V447.82C238.766 449.7 238.273 451.12 237.286 452.08C236.313 453.027 234.886 453.5 233.006 453.5H227.246ZM231.726 451.1H233.046C234.113 451.1 234.893 450.82 235.386 450.26C235.88 449.7 236.126 448.913 236.126 447.9V445.1C236.126 444.073 235.88 443.287 235.386 442.74C234.893 442.18 234.113 441.9 233.046 441.9H231.726V451.1ZM240.967 453.5V439.5H243.607V453.5H240.967ZM246.24 453.5V439.5H251.26L254.04 451.7H254.4V439.5H257V453.5H251.98L249.2 441.3H248.84V453.5H246.24ZM264.478 453.78C263.518 453.78 262.645 453.567 261.858 453.14C261.085 452.7 260.465 452.067 259.998 451.24C259.545 450.4 259.318 449.38 259.318 448.18V444.82C259.318 443.02 259.825 441.64 260.838 440.68C261.852 439.707 263.225 439.22 264.958 439.22C266.678 439.22 268.005 439.68 268.938 440.6C269.885 441.507 270.358 442.74 270.358 444.3V444.38H267.758V444.22C267.758 443.727 267.652 443.28 267.438 442.88C267.238 442.48 266.932 442.167 266.518 441.94C266.105 441.7 265.585 441.58 264.958 441.58C264.025 441.58 263.292 441.867 262.758 442.44C262.225 443.013 261.958 443.793 261.958 444.78V448.22C261.958 449.193 262.225 449.98 262.758 450.58C263.292 451.167 264.038 451.46 264.998 451.46C265.958 451.46 266.658 451.207 267.098 450.7C267.538 450.193 267.758 449.553 267.758 448.78V448.58H264.438V446.34H270.358V453.5H267.918V452.16H267.558C267.465 452.387 267.312 452.627 267.098 452.88C266.898 453.133 266.592 453.347 266.178 453.52C265.765 453.693 265.198 453.78 264.478 453.78ZM277.959 453.5V439.5H280.599V451.1H286.999V453.5H277.959ZM287.839 453.5L291.519 439.5H296.119L299.799 453.5H297.079L296.319 450.42H291.319L290.559 453.5H287.839ZM291.939 447.98H295.699L293.999 441.16H293.639L291.939 447.98ZM306.334 453.78C305.254 453.78 304.301 453.587 303.474 453.2C302.648 452.813 302.001 452.26 301.534 451.54C301.068 450.82 300.834 449.953 300.834 448.94V448.38H303.434V448.94C303.434 449.78 303.694 450.413 304.214 450.84C304.734 451.253 305.441 451.46 306.334 451.46C307.241 451.46 307.914 451.28 308.354 450.92C308.808 450.56 309.034 450.1 309.034 449.54C309.034 449.153 308.921 448.84 308.694 448.6C308.481 448.36 308.161 448.167 307.734 448.02C307.321 447.86 306.814 447.713 306.214 447.58L305.754 447.48C304.794 447.267 303.968 447 303.274 446.68C302.594 446.347 302.068 445.913 301.694 445.38C301.334 444.847 301.154 444.153 301.154 443.3C301.154 442.447 301.354 441.72 301.754 441.12C302.168 440.507 302.741 440.04 303.474 439.72C304.221 439.387 305.094 439.22 306.094 439.22C307.094 439.22 307.981 439.393 308.754 439.74C309.541 440.073 310.154 440.58 310.594 441.26C311.048 441.927 311.274 442.767 311.274 443.78V444.38H308.674V443.78C308.674 443.247 308.568 442.82 308.354 442.5C308.154 442.167 307.861 441.927 307.474 441.78C307.088 441.62 306.628 441.54 306.094 441.54C305.294 441.54 304.701 441.693 304.314 442C303.941 442.293 303.754 442.7 303.754 443.22C303.754 443.567 303.841 443.86 304.014 444.1C304.201 444.34 304.474 444.54 304.834 444.7C305.194 444.86 305.654 445 306.214 445.12L306.674 445.22C307.674 445.433 308.541 445.707 309.274 446.04C310.021 446.373 310.601 446.813 311.014 447.36C311.428 447.907 311.634 448.607 311.634 449.46C311.634 450.313 311.414 451.067 310.974 451.72C310.548 452.36 309.934 452.867 309.134 453.24C308.348 453.6 307.414 453.78 306.334 453.78ZM316.394 453.5V441.9H312.314V439.5H323.114V441.9H319.034V453.5H316.394ZM324.912 453.5V439.5H327.552V453.5H324.912ZM330.185 453.5V439.5H335.205L337.985 451.7H338.345V439.5H340.945V453.5H335.925L333.145 441.3H332.785V453.5H330.185ZM348.424 453.78C347.464 453.78 346.59 453.567 345.804 453.14C345.03 452.7 344.41 452.067 343.944 451.24C343.49 450.4 343.264 449.38 343.264 448.18V444.82C343.264 443.02 343.77 441.64 344.784 440.68C345.797 439.707 347.17 439.22 348.904 439.22C350.624 439.22 351.95 439.68 352.884 440.6C353.83 441.507 354.304 442.74 354.304 444.3V444.38H351.704V444.22C351.704 443.727 351.597 443.28 351.384 442.88C351.184 442.48 350.877 442.167 350.464 441.94C350.05 441.7 349.53 441.58 348.904 441.58C347.97 441.58 347.237 441.867 346.704 442.44C346.17 443.013 345.904 443.793 345.904 444.78V448.22C345.904 449.193 346.17 449.98 346.704 450.58C347.237 451.167 347.984 451.46 348.944 451.46C349.904 451.46 350.604 451.207 351.044 450.7C351.484 450.193 351.704 449.553 351.704 448.78V448.58H348.384V446.34H354.304V453.5H351.864V452.16H351.504C351.41 452.387 351.257 452.627 351.044 452.88C350.844 453.133 350.537 453.347 350.124 453.52C349.71 453.693 349.144 453.78 348.424 453.78ZM194.99 475.5V461.5H200.75C201.63 461.5 202.403 461.68 203.07 462.04C203.75 462.387 204.277 462.88 204.65 463.52C205.037 464.16 205.23 464.92 205.23 465.8V466.08C205.23 466.947 205.03 467.707 204.63 468.36C204.243 469 203.71 469.5 203.03 469.86C202.363 470.207 201.603 470.38 200.75 470.38H197.63V475.5H194.99ZM197.63 467.98H200.49C201.117 467.98 201.623 467.807 202.01 467.46C202.397 467.113 202.59 466.64 202.59 466.04V465.84C202.59 465.24 202.397 464.767 202.01 464.42C201.623 464.073 201.117 463.9 200.49 463.9H197.63V467.98ZM205.026 475.5L208.706 461.5H213.306L216.986 475.5H214.266L213.506 472.42H208.506L207.746 475.5H205.026ZM209.126 469.98H212.886L211.186 463.16H210.826L209.126 469.98ZM218.662 475.5V461.5H224.742C225.622 461.5 226.389 461.653 227.042 461.96C227.695 462.267 228.202 462.7 228.562 463.26C228.922 463.82 229.102 464.48 229.102 465.24V465.48C229.102 466.32 228.902 467 228.502 467.52C228.102 468.04 227.609 468.42 227.022 468.66V469.02C227.555 469.047 227.969 469.233 228.262 469.58C228.555 469.913 228.702 470.36 228.702 470.92V475.5H226.062V471.3C226.062 470.98 225.975 470.72 225.802 470.52C225.642 470.32 225.369 470.22 224.982 470.22H221.302V475.5H218.662ZM221.302 467.82H224.462C225.089 467.82 225.575 467.653 225.922 467.32C226.282 466.973 226.462 466.52 226.462 465.96V465.76C226.462 465.2 226.289 464.753 225.942 464.42C225.595 464.073 225.102 463.9 224.462 463.9H221.302V467.82ZM234.304 475.5V463.9H230.224V461.5H241.024V463.9H236.944V475.5H234.304ZM242.822 475.5V461.5H247.842L250.622 473.7H250.982V461.5H253.582V475.5H248.562L245.782 463.3H245.422V475.5H242.822ZM256.22 475.5V461.5H265.22V463.9H258.86V467.24H264.66V469.64H258.86V473.1H265.34V475.5H256.22ZM267.295 475.5V461.5H273.375C274.255 461.5 275.021 461.653 275.675 461.96C276.328 462.267 276.835 462.7 277.195 463.26C277.555 463.82 277.735 464.48 277.735 465.24V465.48C277.735 466.32 277.535 467 277.135 467.52C276.735 468.04 276.241 468.42 275.655 468.66V469.02C276.188 469.047 276.601 469.233 276.895 469.58C277.188 469.913 277.335 470.36 277.335 470.92V475.5H274.695V471.3C274.695 470.98 274.608 470.72 274.435 470.52C274.275 470.32 274.001 470.22 273.615 470.22H269.935V475.5H267.295ZM269.935 467.82H273.095C273.721 467.82 274.208 467.653 274.555 467.32C274.915 466.973 275.095 466.52 275.095 465.96V465.76C275.095 465.2 274.921 464.753 274.575 464.42C274.228 464.073 273.735 463.9 273.095 463.9H269.935V467.82ZM284.791 475.78C283.711 475.78 282.758 475.587 281.931 475.2C281.105 474.813 280.458 474.26 279.991 473.54C279.525 472.82 279.291 471.953 279.291 470.94V470.38H281.891V470.94C281.891 471.78 282.151 472.413 282.671 472.84C283.191 473.253 283.898 473.46 284.791 473.46C285.698 473.46 286.371 473.28 286.811 472.92C287.265 472.56 287.491 472.1 287.491 471.54C287.491 471.153 287.378 470.84 287.151 470.6C286.938 470.36 286.618 470.167 286.191 470.02C285.778 469.86 285.271 469.713 284.671 469.58L284.211 469.48C283.251 469.267 282.425 469 281.731 468.68C281.051 468.347 280.525 467.913 280.151 467.38C279.791 466.847 279.611 466.153 279.611 465.3C279.611 464.447 279.811 463.72 280.211 463.12C280.625 462.507 281.198 462.04 281.931 461.72C282.678 461.387 283.551 461.22 284.551 461.22C285.551 461.22 286.438 461.393 287.211 461.74C287.998 462.073 288.611 462.58 289.051 463.26C289.505 463.927 289.731 464.767 289.731 465.78V466.38H287.131V465.78C287.131 465.247 287.025 464.82 286.811 464.5C286.611 464.167 286.318 463.927 285.931 463.78C285.545 463.62 285.085 463.54 284.551 463.54C283.751 463.54 283.158 463.693 282.771 464C282.398 464.293 282.211 464.7 282.211 465.22C282.211 465.567 282.298 465.86 282.471 466.1C282.658 466.34 282.931 466.54 283.291 466.7C283.651 466.86 284.111 467 284.671 467.12L285.131 467.22C286.131 467.433 286.998 467.707 287.731 468.04C288.478 468.373 289.058 468.813 289.471 469.36C289.885 469.907 290.091 470.607 290.091 471.46C290.091 472.313 289.871 473.067 289.431 473.72C289.005 474.36 288.391 474.867 287.591 475.24C286.805 475.6 285.871 475.78 284.791 475.78ZM292.06 475.5V461.5H294.7V467.28H299.9V461.5H302.54V475.5H299.9V469.68H294.7V475.5H292.06ZM305.185 475.5V461.5H307.825V475.5H305.185ZM310.459 475.5V461.5H316.219C317.099 461.5 317.872 461.68 318.539 462.04C319.219 462.387 319.745 462.88 320.119 463.52C320.505 464.16 320.699 464.92 320.699 465.8V466.08C320.699 466.947 320.499 467.707 320.099 468.36C319.712 469 319.179 469.5 318.499 469.86C317.832 470.207 317.072 470.38 316.219 470.38H313.099V475.5H310.459ZM313.099 467.98H315.959C316.585 467.98 317.092 467.807 317.479 467.46C317.865 467.113 318.059 466.64 318.059 466.04V465.84C318.059 465.24 317.865 464.767 317.479 464.42C317.092 464.073 316.585 463.9 315.959 463.9H313.099V467.98ZM327.389 475.78C326.309 475.78 325.356 475.587 324.529 475.2C323.702 474.813 323.056 474.26 322.589 473.54C322.122 472.82 321.889 471.953 321.889 470.94V470.38H324.489V470.94C324.489 471.78 324.749 472.413 325.269 472.84C325.789 473.253 326.496 473.46 327.389 473.46C328.296 473.46 328.969 473.28 329.409 472.92C329.862 472.56 330.089 472.1 330.089 471.54C330.089 471.153 329.976 470.84 329.749 470.6C329.536 470.36 329.216 470.167 328.789 470.02C328.376 469.86 327.869 469.713 327.269 469.58L326.809 469.48C325.849 469.267 325.022 469 324.329 468.68C323.649 468.347 323.122 467.913 322.749 467.38C322.389 466.847 322.209 466.153 322.209 465.3C322.209 464.447 322.409 463.72 322.809 463.12C323.222 462.507 323.796 462.04 324.529 461.72C325.276 461.387 326.149 461.22 327.149 461.22C328.149 461.22 329.036 461.393 329.809 461.74C330.596 462.073 331.209 462.58 331.649 463.26C332.102 463.927 332.329 464.767 332.329 465.78V466.38H329.729V465.78C329.729 465.247 329.622 464.82 329.409 464.5C329.209 464.167 328.916 463.927 328.529 463.78C328.142 463.62 327.682 463.54 327.149 463.54C326.349 463.54 325.756 463.693 325.369 464C324.996 464.293 324.809 464.7 324.809 465.22C324.809 465.567 324.896 465.86 325.069 466.1C325.256 466.34 325.529 466.54 325.889 466.7C326.249 466.86 326.709 467 327.269 467.12L327.729 467.22C328.729 467.433 329.596 467.707 330.329 468.04C331.076 468.373 331.656 468.813 332.069 469.36C332.482 469.907 332.689 470.607 332.689 471.46C332.689 472.313 332.469 473.067 332.029 473.72C331.602 474.36 330.989 474.867 330.189 475.24C329.402 475.6 328.469 475.78 327.389 475.78Z" fill="#FDFAF7"/>
<path d="M405.74 32.9329L285.286 106.253V251.845L405.74 323.07L526.718 251.845V106.253L405.74 32.9329Z" fill="#7A2020"/>
<path d="M405.279 55.4265L303.503 117.377V240.393L405.279 300.573L507.497 240.393V117.377L405.279 55.4265Z" stroke="#5E1818" stroke-width="2"/>
<path d="M438.312 164.438H435.969V129.281C435.969 128.66 435.722 128.064 435.282 127.624C434.843 127.184 434.247 126.938 433.625 126.938H414.875C414.253 126.938 413.657 127.184 413.218 127.624C412.778 128.064 412.531 128.66 412.531 129.281V141H398.469V115.219C398.469 114.597 398.222 114.001 397.782 113.561C397.343 113.122 396.747 112.875 396.125 112.875H377.375C376.753 112.875 376.157 113.122 375.718 113.561C375.278 114.001 375.031 114.597 375.031 115.219V164.438H372.688C372.066 164.438 371.47 164.684 371.03 165.124C370.591 165.564 370.344 166.16 370.344 166.781C370.344 167.403 370.591 167.999 371.03 168.439C371.47 168.878 372.066 169.125 372.688 169.125H438.312C438.934 169.125 439.53 168.878 439.97 168.439C440.409 167.999 440.656 167.403 440.656 166.781C440.656 166.16 440.409 165.564 439.97 165.124C439.53 164.684 438.934 164.438 438.312 164.438ZM417.219 131.625H431.281V164.438H417.219V131.625ZM412.531 145.688V164.438H398.469V145.688H412.531ZM379.719 117.562H393.781V164.438H379.719V117.562ZM389.094 124.594V129.281C389.094 129.903 388.847 130.499 388.407 130.939C387.968 131.378 387.372 131.625 386.75 131.625C386.128 131.625 385.532 131.378 385.093 130.939C384.653 130.499 384.406 129.903 384.406 129.281V124.594C384.406 123.972 384.653 123.376 385.093 122.936C385.532 122.497 386.128 122.25 386.75 122.25C387.372 122.25 387.968 122.497 388.407 122.936C388.847 123.376 389.094 123.972 389.094 124.594ZM389.094 138.656V143.344C389.094 143.965 388.847 144.561 388.407 145.001C387.968 145.441 387.372 145.688 386.75 145.688C386.128 145.688 385.532 145.441 385.093 145.001C384.653 144.561 384.406 143.965 384.406 143.344V138.656C384.406 138.035 384.653 137.439 385.093 136.999C385.532 136.559 386.128 136.312 386.75 136.312C387.372 136.312 387.968 136.559 388.407 136.999C388.847 137.439 389.094 138.035 389.094 138.656ZM389.094 152.719V157.406C389.094 158.028 388.847 158.624 388.407 159.064C387.968 159.503 387.372 159.75 386.75 159.75C386.128 159.75 385.532 159.503 385.093 159.064C384.653 158.624 384.406 158.028 384.406 157.406V152.719C384.406 152.097 384.653 151.501 385.093 151.061C385.532 150.622 386.128 150.375 386.75 150.375C387.372 150.375 387.968 150.622 388.407 151.061C388.847 151.501 389.094 152.097 389.094 152.719ZM403.156 157.406V152.719C403.156 152.097 403.403 151.501 403.843 151.061C404.282 150.622 404.878 150.375 405.5 150.375C406.122 150.375 406.718 150.622 407.157 151.061C407.597 151.501 407.844 152.097 407.844 152.719V157.406C407.844 158.028 407.597 158.624 407.157 159.064C406.718 159.503 406.122 159.75 405.5 159.75C404.878 159.75 404.282 159.503 403.843 159.064C403.403 158.624 403.156 158.028 403.156 157.406ZM421.906 157.406V152.719C421.906 152.097 422.153 151.501 422.593 151.061C423.032 150.622 423.628 150.375 424.25 150.375C424.872 150.375 425.468 150.622 425.907 151.061C426.347 151.501 426.594 152.097 426.594 152.719V157.406C426.594 158.028 426.347 158.624 425.907 159.064C425.468 159.503 424.872 159.75 424.25 159.75C423.628 159.75 423.032 159.503 422.593 159.064C422.153 158.624 421.906 158.028 421.906 157.406ZM421.906 143.344V138.656C421.906 138.035 422.153 137.439 422.593 136.999C423.032 136.559 423.628 136.312 424.25 136.312C424.872 136.312 425.468 136.559 425.907 136.999C426.347 137.439 426.594 138.035 426.594 138.656V143.344C426.594 143.965 426.347 144.561 425.907 145.001C425.468 145.441 424.872 145.688 424.25 145.688C423.628 145.688 423.032 145.441 422.593 145.001C422.153 144.561 421.906 143.965 421.906 143.344Z" fill="#FDFAF7"/>
<path d="M344.787 204.78C343.053 204.78 341.68 204.3 340.667 203.34C339.653 202.367 339.147 200.98 339.147 199.18V195.82C339.147 194.02 339.653 192.64 340.667 191.68C341.68 190.707 343.053 190.22 344.787 190.22C346.507 190.22 347.833 190.693 348.767 191.64C349.713 192.573 350.187 193.86 350.187 195.5V195.62H347.587V195.42C347.587 194.593 347.353 193.913 346.887 193.38C346.433 192.847 345.733 192.58 344.787 192.58C343.853 192.58 343.12 192.867 342.587 193.44C342.053 194.013 341.787 194.793 341.787 195.78V199.22C341.787 200.193 342.053 200.973 342.587 201.56C343.12 202.133 343.853 202.42 344.787 202.42C345.733 202.42 346.433 202.153 346.887 201.62C347.353 201.073 347.587 200.393 347.587 199.58V199.22H350.187V199.5C350.187 201.14 349.713 202.433 348.767 203.38C347.833 204.313 346.507 204.78 344.787 204.78ZM357.778 204.78C356.018 204.78 354.618 204.3 353.578 203.34C352.538 202.367 352.018 200.98 352.018 199.18V195.82C352.018 194.02 352.538 192.64 353.578 191.68C354.618 190.707 356.018 190.22 357.778 190.22C359.538 190.22 360.938 190.707 361.978 191.68C363.018 192.64 363.538 194.02 363.538 195.82V199.18C363.538 200.98 363.018 202.367 361.978 203.34C360.938 204.3 359.538 204.78 357.778 204.78ZM357.778 202.42C358.764 202.42 359.531 202.133 360.078 201.56C360.624 200.987 360.898 200.22 360.898 199.26V195.74C360.898 194.78 360.624 194.013 360.078 193.44C359.531 192.867 358.764 192.58 357.778 192.58C356.804 192.58 356.038 192.867 355.478 193.44C354.931 194.013 354.658 194.78 354.658 195.74V199.26C354.658 200.22 354.931 200.987 355.478 201.56C356.038 202.133 356.804 202.42 357.778 202.42ZM365.853 204.5V190.5H370.753L373.173 202.7H373.533L375.953 190.5H380.853V204.5H378.293V192.44H377.933L375.533 204.5H371.173L368.773 192.44H368.413V204.5H365.853ZM383.49 204.5V190.5H388.39L390.81 202.7H391.17L393.59 190.5H398.49V204.5H395.93V192.44H395.57L393.17 204.5H388.81L386.41 192.44H386.05V204.5H383.49ZM406.527 204.78C405.38 204.78 404.393 204.573 403.567 204.16C402.753 203.733 402.127 203.133 401.687 202.36C401.26 201.573 401.047 200.647 401.047 199.58V190.5H403.687V199.66C403.687 200.513 403.927 201.187 404.407 201.68C404.9 202.173 405.607 202.42 406.527 202.42C407.447 202.42 408.147 202.173 408.627 201.68C409.12 201.187 409.367 200.513 409.367 199.66V190.5H412.007V199.58C412.007 200.647 411.787 201.573 411.347 202.36C410.92 203.133 410.293 203.733 409.467 204.16C408.653 204.573 407.673 204.78 406.527 204.78ZM414.564 204.5V190.5H419.584L422.364 202.7H422.724V190.5H425.324V204.5H420.304L417.524 192.3H417.164V204.5H414.564ZM427.963 204.5V190.5H430.603V204.5H427.963ZM436.476 204.5V192.9H432.396V190.5H443.196V192.9H439.116V204.5H436.476ZM448.594 204.5V199.68L443.834 190.5H446.774L449.734 196.5H450.094L453.054 190.5H455.994L451.234 199.68V204.5H448.594ZM465.737 204.5C464.911 204.5 464.184 204.353 463.557 204.06C462.944 203.753 462.464 203.32 462.117 202.76C461.771 202.187 461.597 201.507 461.597 200.72C461.597 200.147 461.697 199.647 461.897 199.22C462.111 198.793 462.397 198.44 462.757 198.16C463.117 197.88 463.517 197.673 463.957 197.54V197.26C463.291 197.06 462.744 196.713 462.317 196.22C461.891 195.727 461.677 195.073 461.677 194.26C461.677 193.447 461.857 192.76 462.217 192.2C462.577 191.64 463.064 191.22 463.677 190.94C464.304 190.647 465.017 190.5 465.817 190.5H467.997V192.58H466.277C465.677 192.58 465.177 192.74 464.777 193.06C464.391 193.38 464.197 193.853 464.197 194.48C464.197 194.92 464.291 195.28 464.477 195.56C464.677 195.84 464.931 196.047 465.237 196.18C465.557 196.313 465.904 196.38 466.277 196.38H468.217V194.58H470.737V196.38H472.577V198.46H470.737V204.5H465.737ZM466.197 202.42H468.217V198.46H466.197C465.611 198.46 465.117 198.627 464.717 198.96C464.317 199.293 464.117 199.787 464.117 200.44C464.117 201.107 464.324 201.607 464.737 201.94C465.164 202.26 465.651 202.42 466.197 202.42ZM330.957 226.78C329.877 226.78 328.924 226.587 328.097 226.2C327.271 225.813 326.624 225.26 326.157 224.54C325.691 223.82 325.457 222.953 325.457 221.94V221.38H328.057V221.94C328.057 222.78 328.317 223.413 328.837 223.84C329.357 224.253 330.064 224.46 330.957 224.46C331.864 224.46 332.537 224.28 332.977 223.92C333.431 223.56 333.657 223.1 333.657 222.54C333.657 222.153 333.544 221.84 333.317 221.6C333.104 221.36 332.784 221.167 332.357 221.02C331.944 220.86 331.437 220.713 330.837 220.58L330.377 220.48C329.417 220.267 328.591 220 327.897 219.68C327.217 219.347 326.691 218.913 326.317 218.38C325.957 217.847 325.777 217.153 325.777 216.3C325.777 215.447 325.977 214.72 326.377 214.12C326.791 213.507 327.364 213.04 328.097 212.72C328.844 212.387 329.717 212.22 330.717 212.22C331.717 212.22 332.604 212.393 333.377 212.74C334.164 213.073 334.777 213.58 335.217 214.26C335.671 214.927 335.897 215.767 335.897 216.78V217.38H333.297V216.78C333.297 216.247 333.191 215.82 332.977 215.5C332.777 215.167 332.484 214.927 332.097 214.78C331.711 214.62 331.251 214.54 330.717 214.54C329.917 214.54 329.324 214.693 328.937 215C328.564 215.293 328.377 215.7 328.377 216.22C328.377 216.567 328.464 216.86 328.637 217.1C328.824 217.34 329.097 217.54 329.457 217.7C329.817 217.86 330.277 218 330.837 218.12L331.297 218.22C332.297 218.433 333.164 218.707 333.897 219.04C334.644 219.373 335.224 219.813 335.637 220.36C336.051 220.907 336.257 221.607 336.257 222.46C336.257 223.313 336.037 224.067 335.597 224.72C335.171 225.36 334.557 225.867 333.757 226.24C332.971 226.6 332.037 226.78 330.957 226.78ZM338.226 226.5V212.5H343.126L345.546 224.7H345.906L348.326 212.5H353.226V226.5H350.666V214.44H350.306L347.906 226.5H343.546L341.146 214.44H340.786V226.5H338.226ZM354.903 226.5L358.583 212.5H363.183L366.863 226.5H364.143L363.383 223.42H358.383L357.623 226.5H354.903ZM359.003 220.98H362.763L361.063 214.16H360.703L359.003 220.98ZM368.539 226.5V212.5H371.179V224.1H377.579V226.5H368.539ZM379.379 226.5V212.5H382.019V224.1H388.419V226.5H379.379ZM394.291 226.5V224.18H396.131V214.82H394.291V212.5H401.491C402.345 212.5 403.085 212.647 403.711 212.94C404.351 213.22 404.845 213.627 405.191 214.16C405.551 214.68 405.731 215.307 405.731 216.04V216.24C405.731 216.88 405.611 217.407 405.371 217.82C405.131 218.22 404.845 218.533 404.511 218.76C404.191 218.973 403.885 219.127 403.591 219.22V219.58C403.885 219.66 404.205 219.813 404.551 220.04C404.898 220.253 405.191 220.567 405.431 220.98C405.685 221.393 405.811 221.933 405.811 222.6V222.8C405.811 223.573 405.631 224.24 405.271 224.8C404.911 225.347 404.411 225.767 403.771 226.06C403.145 226.353 402.411 226.5 401.571 226.5H394.291ZM398.771 224.1H401.251C401.825 224.1 402.285 223.96 402.631 223.68C402.991 223.4 403.171 223 403.171 222.48V222.28C403.171 221.76 402.998 221.36 402.651 221.08C402.305 220.8 401.838 220.66 401.251 220.66H398.771V224.1ZM398.771 218.26H401.211C401.758 218.26 402.205 218.12 402.551 217.84C402.911 217.56 403.091 217.173 403.091 216.68V216.48C403.091 215.973 402.918 215.587 402.571 215.32C402.225 215.04 401.771 214.9 401.211 214.9H398.771V218.26ZM413.372 226.78C412.226 226.78 411.239 226.573 410.412 226.16C409.599 225.733 408.972 225.133 408.532 224.36C408.106 223.573 407.892 222.647 407.892 221.58V212.5H410.532V221.66C410.532 222.513 410.772 223.187 411.252 223.68C411.746 224.173 412.452 224.42 413.372 224.42C414.292 224.42 414.992 224.173 415.472 223.68C415.966 223.187 416.212 222.513 416.212 221.66V212.5H418.852V221.58C418.852 222.647 418.632 223.573 418.192 224.36C417.766 225.133 417.139 225.733 416.312 226.16C415.499 226.573 414.519 226.78 413.372 226.78ZM426.27 226.78C425.19 226.78 424.237 226.587 423.41 226.2C422.583 225.813 421.937 225.26 421.47 224.54C421.003 223.82 420.77 222.953 420.77 221.94V221.38H423.37V221.94C423.37 222.78 423.63 223.413 424.15 223.84C424.67 224.253 425.377 224.46 426.27 224.46C427.177 224.46 427.85 224.28 428.29 223.92C428.743 223.56 428.97 223.1 428.97 222.54C428.97 222.153 428.857 221.84 428.63 221.6C428.417 221.36 428.097 221.167 427.67 221.02C427.257 220.86 426.75 220.713 426.15 220.58L425.69 220.48C424.73 220.267 423.903 220 423.21 219.68C422.53 219.347 422.003 218.913 421.63 218.38C421.27 217.847 421.09 217.153 421.09 216.3C421.09 215.447 421.29 214.72 421.69 214.12C422.103 213.507 422.677 213.04 423.41 212.72C424.157 212.387 425.03 212.22 426.03 212.22C427.03 212.22 427.917 212.393 428.69 212.74C429.477 213.073 430.09 213.58 430.53 214.26C430.983 214.927 431.21 215.767 431.21 216.78V217.38H428.61V216.78C428.61 216.247 428.503 215.82 428.29 215.5C428.09 215.167 427.797 214.927 427.41 214.78C427.023 214.62 426.563 214.54 426.03 214.54C425.23 214.54 424.637 214.693 424.25 215C423.877 215.293 423.69 215.7 423.69 216.22C423.69 216.567 423.777 216.86 423.95 217.1C424.137 217.34 424.41 217.54 424.77 217.7C425.13 217.86 425.59 218 426.15 218.12L426.61 218.22C427.61 218.433 428.477 218.707 429.21 219.04C429.957 219.373 430.537 219.813 430.95 220.36C431.363 220.907 431.57 221.607 431.57 222.46C431.57 223.313 431.35 224.067 430.91 224.72C430.483 225.36 429.87 225.867 429.07 226.24C428.283 226.6 427.35 226.78 426.27 226.78ZM433.539 226.5V212.5H436.179V226.5H433.539ZM438.812 226.5V212.5H443.832L446.612 224.7H446.972V212.5H449.572V226.5H444.552L441.772 214.3H441.412V226.5H438.812ZM452.211 226.5V212.5H461.211V214.9H454.851V218.24H460.651V220.64H454.851V224.1H461.331V226.5H452.211ZM468.145 226.78C467.065 226.78 466.112 226.587 465.285 226.2C464.458 225.813 463.812 225.26 463.345 224.54C462.878 223.82 462.645 222.953 462.645 221.94V221.38H465.245V221.94C465.245 222.78 465.505 223.413 466.025 223.84C466.545 224.253 467.252 224.46 468.145 224.46C469.052 224.46 469.725 224.28 470.165 223.92C470.618 223.56 470.845 223.1 470.845 222.54C470.845 222.153 470.732 221.84 470.505 221.6C470.292 221.36 469.972 221.167 469.545 221.02C469.132 220.86 468.625 220.713 468.025 220.58L467.565 220.48C466.605 220.267 465.778 220 465.085 219.68C464.405 219.347 463.878 218.913 463.505 218.38C463.145 217.847 462.965 217.153 462.965 216.3C462.965 215.447 463.165 214.72 463.565 214.12C463.978 213.507 464.552 213.04 465.285 212.72C466.032 212.387 466.905 212.22 467.905 212.22C468.905 212.22 469.792 212.393 470.565 212.74C471.352 213.073 471.965 213.58 472.405 214.26C472.858 214.927 473.085 215.767 473.085 216.78V217.38H470.485V216.78C470.485 216.247 470.378 215.82 470.165 215.5C469.965 215.167 469.672 214.927 469.285 214.78C468.898 214.62 468.438 214.54 467.905 214.54C467.105 214.54 466.512 214.693 466.125 215C465.752 215.293 465.565 215.7 465.565 216.22C465.565 216.567 465.652 216.86 465.825 217.1C466.012 217.34 466.285 217.54 466.645 217.7C467.005 217.86 467.465 218 468.025 218.12L468.485 218.22C469.485 218.433 470.352 218.707 471.085 219.04C471.832 219.373 472.412 219.813 472.825 220.36C473.238 220.907 473.445 221.607 473.445 222.46C473.445 223.313 473.225 224.067 472.785 224.72C472.358 225.36 471.745 225.867 470.945 226.24C470.158 226.6 469.225 226.78 468.145 226.78ZM480.274 226.78C479.194 226.78 478.241 226.587 477.414 226.2C476.587 225.813 475.941 225.26 475.474 224.54C475.007 223.82 474.774 222.953 474.774 221.94V221.38H477.374V221.94C477.374 222.78 477.634 223.413 478.154 223.84C478.674 224.253 479.381 224.46 480.274 224.46C481.181 224.46 481.854 224.28 482.294 223.92C482.747 223.56 482.974 223.1 482.974 222.54C482.974 222.153 482.861 221.84 482.634 221.6C482.421 221.36 482.101 221.167 481.674 221.02C481.261 220.86 480.754 220.713 480.154 220.58L479.694 220.48C478.734 220.267 477.907 220 477.214 219.68C476.534 219.347 476.007 218.913 475.634 218.38C475.274 217.847 475.094 217.153 475.094 216.3C475.094 215.447 475.294 214.72 475.694 214.12C476.107 213.507 476.681 213.04 477.414 212.72C478.161 212.387 479.034 212.22 480.034 212.22C481.034 212.22 481.921 212.393 482.694 212.74C483.481 213.073 484.094 213.58 484.534 214.26C484.987 214.927 485.214 215.767 485.214 216.78V217.38H482.614V216.78C482.614 216.247 482.507 215.82 482.294 215.5C482.094 215.167 481.801 214.927 481.414 214.78C481.027 214.62 480.567 214.54 480.034 214.54C479.234 214.54 478.641 214.693 478.254 215C477.881 215.293 477.694 215.7 477.694 216.22C477.694 216.567 477.781 216.86 477.954 217.1C478.141 217.34 478.414 217.54 478.774 217.7C479.134 217.86 479.594 218 480.154 218.12L480.614 218.22C481.614 218.433 482.481 218.707 483.214 219.04C483.961 219.373 484.541 219.813 484.954 220.36C485.367 220.907 485.574 221.607 485.574 222.46C485.574 223.313 485.354 224.067 484.914 224.72C484.487 225.36 483.874 225.867 483.074 226.24C482.287 226.6 481.354 226.78 480.274 226.78ZM345.861 248.78C344.127 248.78 342.754 248.3 341.741 247.34C340.727 246.367 340.221 244.98 340.221 243.18V239.82C340.221 238.02 340.727 236.64 341.741 235.68C342.754 234.707 344.127 234.22 345.861 234.22C347.581 234.22 348.907 234.693 349.841 235.64C350.787 236.573 351.261 237.86 351.261 239.5V239.62H348.661V239.42C348.661 238.593 348.427 237.913 347.961 237.38C347.507 236.847 346.807 236.58 345.861 236.58C344.927 236.58 344.194 236.867 343.661 237.44C343.127 238.013 342.861 238.793 342.861 239.78V243.22C342.861 244.193 343.127 244.973 343.661 245.56C344.194 246.133 344.927 246.42 345.861 246.42C346.807 246.42 347.507 246.153 347.961 245.62C348.427 245.073 348.661 244.393 348.661 243.58V243.22H351.261V243.5C351.261 245.14 350.787 246.433 349.841 247.38C348.907 248.313 347.581 248.78 345.861 248.78ZM358.852 248.78C357.092 248.78 355.692 248.3 354.652 247.34C353.612 246.367 353.092 244.98 353.092 243.18V239.82C353.092 238.02 353.612 236.64 354.652 235.68C355.692 234.707 357.092 234.22 358.852 234.22C360.612 234.22 362.012 234.707 363.052 235.68C364.092 236.64 364.612 238.02 364.612 239.82V243.18C364.612 244.98 364.092 246.367 363.052 247.34C362.012 248.3 360.612 248.78 358.852 248.78ZM358.852 246.42C359.839 246.42 360.605 246.133 361.152 245.56C361.699 244.987 361.972 244.22 361.972 243.26V239.74C361.972 238.78 361.699 238.013 361.152 237.44C360.605 236.867 359.839 236.58 358.852 236.58C357.879 236.58 357.112 236.867 356.552 237.44C356.005 238.013 355.732 238.78 355.732 239.74V243.26C355.732 244.22 356.005 244.987 356.552 245.56C357.112 246.133 357.879 246.42 358.852 246.42ZM366.928 248.5V234.5H371.828L374.248 246.7H374.608L377.028 234.5H381.928V248.5H379.368V236.44H379.008L376.608 248.5H372.248L369.848 236.44H369.488V248.5H366.928ZM384.564 248.5V234.5H389.464L391.884 246.7H392.244L394.664 234.5H399.564V248.5H397.004V236.44H396.644L394.244 248.5H389.884L387.484 236.44H387.124V248.5H384.564ZM402.201 248.5V234.5H404.841V248.5H402.201ZM410.714 248.5V236.9H406.634V234.5H417.434V236.9H413.354V248.5H410.714ZM419.232 248.5V234.5H424.132L426.552 246.7H426.912L429.332 234.5H434.232V248.5H431.672V236.44H431.312L428.912 248.5H424.552L422.152 236.44H421.792V248.5H419.232ZM436.869 248.5V234.5H445.869V236.9H439.509V240.24H445.309V242.64H439.509V246.1H445.989V248.5H436.869ZM447.943 248.5V234.5H452.963L455.743 246.7H456.103V234.5H458.703V248.5H453.683L450.903 236.3H450.543V248.5H447.943ZM464.582 248.5V236.9H460.502V234.5H471.302V236.9H467.222V248.5H464.582Z" fill="#FDFAF7"/>
</svg>
