<svg width="244" height="291" viewBox="0 0 244 291" fill="none" xmlns="http://www.w3.org/2000/svg">
<path d="M121.74 0L1.28564 73.32L1.28564 218.912L121.74 290.138L242.718 218.912V73.32L121.74 0Z" fill="#B34819"/>
<path d="M121.279 22.4937L19.5029 84.4441L19.5029 207.46L121.279 267.641L223.497 207.46V84.4441L121.279 22.4937Z" stroke="#7A2D0D" stroke-width="2"/>
<path d="M155.719 125.63C155.472 125.814 155.192 125.949 154.894 126.025C154.596 126.101 154.286 126.118 153.981 126.075C153.676 126.031 153.383 125.928 153.118 125.771C152.853 125.614 152.622 125.407 152.437 125.161C151.025 123.262 149.186 121.721 147.069 120.663C144.952 119.604 142.617 119.058 140.25 119.067C139.789 119.067 139.338 118.931 138.954 118.676C138.57 118.421 138.27 118.059 138.091 117.634C137.969 117.346 137.906 117.036 137.906 116.723C137.906 116.41 137.969 116.101 138.091 115.812C138.27 115.388 138.57 115.025 138.954 114.77C139.338 114.516 139.789 114.38 140.25 114.38C141.565 114.379 142.854 114.011 143.97 113.315C145.085 112.619 145.984 111.624 146.563 110.443C147.142 109.263 147.378 107.943 147.244 106.635C147.111 105.327 146.613 104.082 145.808 103.042C145.002 102.003 143.922 101.21 142.688 100.754C141.455 100.297 140.118 100.196 138.83 100.462C137.542 100.727 136.355 101.348 135.402 102.255C134.449 103.162 133.77 104.317 133.441 105.59C133.364 105.889 133.229 106.169 133.044 106.415C132.859 106.661 132.627 106.868 132.362 107.024C132.097 107.181 131.803 107.283 131.498 107.326C131.193 107.369 130.883 107.352 130.585 107.275C130.287 107.198 130.007 107.063 129.761 106.878C129.515 106.693 129.307 106.461 129.151 106.196C128.995 105.93 128.892 105.637 128.849 105.332C128.806 105.027 128.823 104.717 128.9 104.419C129.357 102.653 130.219 101.018 131.418 99.6443C132.617 98.2704 134.121 97.1954 135.809 96.5048C137.497 95.8142 139.322 95.5271 141.141 95.6663C142.959 95.8054 144.72 96.3671 146.283 97.3065C147.846 98.246 149.168 99.5373 150.145 101.078C151.121 102.618 151.724 104.365 151.906 106.18C152.089 107.994 151.845 109.826 151.195 111.53C150.544 113.234 149.505 114.762 148.16 115.994C151.347 117.374 154.117 119.563 156.196 122.345C156.381 122.592 156.515 122.873 156.591 123.172C156.667 123.471 156.683 123.781 156.639 124.087C156.594 124.392 156.49 124.685 156.332 124.95C156.175 125.214 155.966 125.446 155.719 125.63ZM139.934 143.676C140.103 143.943 140.217 144.241 140.268 144.553C140.32 144.865 140.307 145.184 140.232 145.491C140.157 145.798 140.02 146.087 139.831 146.34C139.641 146.593 139.402 146.805 139.128 146.963C138.855 147.121 138.552 147.222 138.238 147.26C137.924 147.299 137.606 147.273 137.303 147.185C136.999 147.097 136.716 146.948 136.472 146.748C136.227 146.548 136.025 146.3 135.879 146.02C134.402 143.52 132.3 141.448 129.778 140.009C127.257 138.57 124.403 137.813 121.5 137.813C118.597 137.813 115.743 138.57 113.222 140.009C110.7 141.448 108.597 143.52 107.121 146.02C106.974 146.3 106.773 146.548 106.528 146.748C106.283 146.948 106.001 147.097 105.697 147.185C105.394 147.273 105.075 147.299 104.762 147.26C104.448 147.222 104.145 147.121 103.871 146.963C103.598 146.805 103.359 146.593 103.169 146.34C102.98 146.087 102.843 145.798 102.768 145.491C102.693 145.184 102.68 144.865 102.732 144.553C102.783 144.241 102.897 143.943 103.066 143.676C105.339 139.772 108.803 136.7 112.951 134.911C110.617 133.124 108.902 130.65 108.046 127.838C107.191 125.026 107.238 122.016 108.181 119.232C109.125 116.448 110.917 114.03 113.306 112.317C115.695 110.604 118.56 109.683 121.5 109.683C124.439 109.683 127.305 110.604 129.694 112.317C132.083 114.03 133.875 116.448 134.819 119.232C135.762 122.016 135.809 125.026 134.954 127.838C134.098 130.65 132.383 133.124 130.049 134.911C134.197 136.7 137.661 139.772 139.934 143.676ZM121.5 133.13C123.354 133.13 125.167 132.58 126.708 131.55C128.25 130.519 129.452 129.055 130.161 127.342C130.871 125.629 131.057 123.744 130.695 121.926C130.333 120.107 129.44 118.437 128.129 117.125C126.818 115.814 125.147 114.921 123.329 114.56C121.51 114.198 119.625 114.384 117.912 115.093C116.199 115.803 114.735 117.004 113.705 118.546C112.675 120.088 112.125 121.9 112.125 123.755C112.125 126.241 113.113 128.626 114.871 130.384C116.629 132.142 119.014 133.13 121.5 133.13ZM105.094 116.723C105.094 116.102 104.847 115.506 104.407 115.066C103.968 114.626 103.372 114.38 102.75 114.38C101.435 114.379 100.146 114.011 99.0303 113.315C97.9144 112.619 97.016 111.624 96.4371 110.443C95.8582 109.263 95.6221 107.943 95.7556 106.635C95.889 105.327 96.3867 104.082 97.192 103.042C97.9974 102.003 99.0781 101.21 100.312 100.754C101.545 100.297 102.882 100.196 104.17 100.462C105.458 100.727 106.645 101.348 107.598 102.255C108.55 103.162 109.23 104.317 109.559 105.59C109.714 106.193 110.102 106.708 110.638 107.024C111.174 107.34 111.813 107.43 112.415 107.275C113.017 107.12 113.533 106.731 113.849 106.196C114.165 105.66 114.255 105.021 114.1 104.419C113.643 102.653 112.781 101.018 111.582 99.6443C110.382 98.2704 108.879 97.1954 107.191 96.5048C105.503 95.8142 103.678 95.5271 101.859 95.6663C100.041 95.8054 98.28 96.3671 96.7169 97.3065C95.1538 98.246 93.8315 99.5373 92.8552 101.078C91.879 102.618 91.2757 104.365 91.0935 106.18C90.9112 107.994 91.1549 109.826 91.8053 111.53C92.4557 113.234 93.4947 114.762 94.8398 115.994C91.656 117.375 88.8887 119.565 86.8124 122.345C86.4391 122.843 86.2785 123.468 86.3662 124.084C86.4538 124.699 86.7824 125.255 87.2797 125.628C87.777 126.001 88.4022 126.162 89.0178 126.074C89.6335 125.987 90.1891 125.658 90.5624 125.161C91.9751 123.262 93.8138 121.721 95.9306 120.663C98.0475 119.604 100.383 119.058 102.75 119.067C103.372 119.067 103.968 118.82 104.407 118.381C104.847 117.941 105.094 117.345 105.094 116.723Z" fill="#FDFAF7"/>
<path d="M52.2342 182.567V168.567H61.0342V170.967H54.8742V174.347H60.5542V176.747H54.8742V182.567H52.2342ZM61.0789 182.567L64.7589 168.567H69.3589L73.0389 182.567H70.3189L69.5589 179.487H64.5589L63.7989 182.567H61.0789ZM65.1789 177.047H68.9389L67.2389 170.227H66.8789L65.1789 177.047ZM74.7146 182.567V168.567H79.6146L82.0346 180.767H82.3946L84.8146 168.567H89.7146V182.567H87.1546V170.507H86.7946L84.3946 182.567H80.0346L77.6346 170.507H77.2746V182.567H74.7146ZM92.3514 182.567V168.567H94.9914V182.567H92.3514ZM97.6248 182.567V168.567H100.265V180.167H106.665V182.567H97.6248ZM109.779 182.567V177.747L105.019 168.567H107.959L110.919 174.567H111.279L114.239 168.567H117.179L112.419 177.747V182.567H109.779ZM116.747 178.607V176.327H122.667V178.607H116.747ZM124.94 182.567V180.247H126.78V170.887H124.94V168.567H130.7C132.58 168.567 134.006 169.047 134.98 170.007C135.966 170.954 136.46 172.367 136.46 174.247V176.887C136.46 178.767 135.966 180.187 134.98 181.147C134.006 182.094 132.58 182.567 130.7 182.567H124.94ZM129.42 180.167H130.74C131.806 180.167 132.586 179.887 133.08 179.327C133.573 178.767 133.82 177.98 133.82 176.967V174.167C133.82 173.14 133.573 172.354 133.08 171.807C132.586 171.247 131.806 170.967 130.74 170.967H129.42V180.167ZM138.66 182.567V168.567H144.74C145.62 168.567 146.387 168.72 147.04 169.027C147.693 169.334 148.2 169.767 148.56 170.327C148.92 170.887 149.1 171.547 149.1 172.307V172.547C149.1 173.387 148.9 174.067 148.5 174.587C148.1 175.107 147.607 175.487 147.02 175.727V176.087C147.553 176.114 147.967 176.3 148.26 176.647C148.553 176.98 148.7 177.427 148.7 177.987V182.567H146.06V178.367C146.06 178.047 145.973 177.787 145.8 177.587C145.64 177.387 145.367 177.287 144.98 177.287H141.3V182.567H138.66ZM141.3 174.887H144.46C145.087 174.887 145.573 174.72 145.92 174.387C146.28 174.04 146.46 173.587 146.46 173.027V172.827C146.46 172.267 146.287 171.82 145.94 171.487C145.593 171.14 145.1 170.967 144.46 170.967H141.3V174.887ZM151.297 182.567V168.567H153.937V182.567H151.297ZM159.17 182.567L155.61 168.567H158.33L161.29 180.867H161.57L164.53 168.567H167.25L163.69 182.567H159.17ZM168.933 182.567V168.567H177.933V170.967H171.573V174.307H177.373V176.707H171.573V180.167H178.053V182.567H168.933ZM180.008 182.567V168.567H185.028L187.808 180.767H188.168V168.567H190.768V182.567H185.748L182.968 170.367H182.608V182.567H180.008ZM89.8146 204.567L86.2546 190.567H88.9746L91.9346 202.867H92.2146L95.1746 190.567H97.8946L94.3346 204.567H89.8146ZM97.7 204.567L101.38 190.567H105.98L109.66 204.567H106.94L106.18 201.487H101.18L100.42 204.567H97.7ZM101.8 199.047H105.56L103.86 192.227H103.5L101.8 199.047ZM111.336 204.567V190.567H113.976V202.167H120.376V204.567H111.336ZM127.185 204.847C126.038 204.847 125.052 204.64 124.225 204.227C123.412 203.8 122.785 203.2 122.345 202.427C121.918 201.64 121.705 200.714 121.705 199.647V190.567H124.345V199.727C124.345 200.58 124.585 201.254 125.065 201.747C125.558 202.24 126.265 202.487 127.185 202.487C128.105 202.487 128.805 202.24 129.285 201.747C129.778 201.254 130.025 200.58 130.025 199.727V190.567H132.665V199.647C132.665 200.714 132.445 201.64 132.005 202.427C131.578 203.2 130.952 203.8 130.125 204.227C129.312 204.64 128.332 204.847 127.185 204.847ZM135.222 204.567V190.567H144.222V192.967H137.862V196.307H143.662V198.707H137.862V202.167H144.342V204.567H135.222ZM151.157 204.847C150.077 204.847 149.123 204.654 148.297 204.267C147.47 203.88 146.823 203.327 146.357 202.607C145.89 201.887 145.657 201.02 145.657 200.007V199.447H148.257V200.007C148.257 200.847 148.517 201.48 149.037 201.907C149.557 202.32 150.263 202.527 151.157 202.527C152.063 202.527 152.737 202.347 153.177 201.987C153.63 201.627 153.857 201.167 153.857 200.607C153.857 200.22 153.743 199.907 153.517 199.667C153.303 199.427 152.983 199.234 152.557 199.087C152.143 198.927 151.637 198.78 151.037 198.647L150.577 198.547C149.617 198.334 148.79 198.067 148.097 197.747C147.417 197.414 146.89 196.98 146.517 196.447C146.157 195.914 145.977 195.22 145.977 194.367C145.977 193.514 146.177 192.787 146.577 192.187C146.99 191.574 147.563 191.107 148.297 190.787C149.043 190.454 149.917 190.287 150.917 190.287C151.917 190.287 152.803 190.46 153.577 190.807C154.363 191.14 154.977 191.647 155.417 192.327C155.87 192.994 156.097 193.834 156.097 194.847V195.447H153.497V194.847C153.497 194.314 153.39 193.887 153.177 193.567C152.977 193.234 152.683 192.994 152.297 192.847C151.91 192.687 151.45 192.607 150.917 192.607C150.117 192.607 149.523 192.76 149.137 193.067C148.763 193.36 148.577 193.767 148.577 194.287C148.577 194.634 148.663 194.927 148.837 195.167C149.023 195.407 149.297 195.607 149.657 195.767C150.017 195.927 150.477 196.067 151.037 196.187L151.497 196.287C152.497 196.5 153.363 196.774 154.097 197.107C154.843 197.44 155.423 197.88 155.837 198.427C156.25 198.974 156.457 199.674 156.457 200.527C156.457 201.38 156.237 202.134 155.797 202.787C155.37 203.427 154.757 203.934 153.957 204.307C153.17 204.667 152.237 204.847 151.157 204.847Z" fill="#FDFAF7"/>
</svg>
