<svg width="244" height="291" viewBox="0 0 244 291" fill="none" xmlns="http://www.w3.org/2000/svg">
<path d="M121.74 0L1.28564 73.32L1.28564 218.912L121.74 290.138L242.718 218.912V73.32L121.74 0Z" fill="#4A1A05"/>
<path d="M121.279 22.4937L19.5029 84.4441L19.5029 207.46L121.279 267.641L223.497 207.46V84.4441L121.279 22.4937Z" stroke="#A03C12" stroke-width="2"/>
<path d="M156.548 95.5975C156.514 95.0241 156.271 94.483 155.865 94.0769C155.459 93.6707 154.918 93.4279 154.345 93.3944C139.181 92.5155 127.005 97.1268 121.772 105.764C118.315 111.473 118.321 118.408 121.726 125.023C119.788 127.33 118.372 130.028 117.574 132.933L112.808 128.149C115.099 123.365 115.011 118.379 112.515 114.236C108.647 107.852 99.7207 104.431 88.6377 105.081C88.0643 105.114 87.5232 105.357 87.117 105.763C86.7109 106.17 86.468 106.711 86.4346 107.284C85.7812 118.367 89.206 127.294 95.5898 131.161C97.6965 132.448 100.117 133.129 102.586 133.13C104.982 133.1 107.341 132.533 109.488 131.469L116.812 138.793V147.192C116.812 147.814 117.059 148.41 117.499 148.85C117.938 149.289 118.535 149.536 119.156 149.536C119.778 149.536 120.374 149.289 120.814 148.85C121.253 148.41 121.5 147.814 121.5 147.192V138.553C121.49 134.824 122.758 131.205 125.095 128.299C128.109 129.874 131.452 130.717 134.854 130.76C138.142 130.77 141.369 129.872 144.179 128.164C152.815 122.937 157.438 110.762 156.548 95.5975ZM98.0068 127.153C93.5127 124.431 90.9697 117.989 91.0312 109.692C99.3281 109.622 105.77 112.174 108.492 116.668C109.913 119.012 110.145 121.745 109.213 124.56L102.062 117.409C101.618 116.988 101.028 116.757 100.417 116.765C99.806 116.772 99.2221 117.019 98.7899 117.451C98.3577 117.883 98.1115 118.467 98.1036 119.078C98.0958 119.689 98.327 120.279 98.748 120.722L105.899 127.874C103.084 128.806 100.353 128.574 98.0068 127.153ZM141.75 124.159C137.824 126.535 133.21 126.717 128.522 124.745L144.252 109.013C144.673 108.569 144.904 107.979 144.896 107.368C144.889 106.757 144.642 106.173 144.21 105.741C143.778 105.309 143.194 105.062 142.583 105.055C141.972 105.047 141.382 105.278 140.938 105.699L125.206 121.411C123.226 116.723 123.404 112.106 125.792 108.183C129.876 101.445 139.562 97.6893 151.963 97.9793C152.244 110.378 148.494 120.075 141.75 124.159Z" fill="#FDFAF7"/>
<path d="M36.4142 182.567V180.247H38.2542V170.887H36.4142V168.567H43.6142C44.4676 168.567 45.2076 168.714 45.8342 169.007C46.4742 169.287 46.9676 169.694 47.3142 170.227C47.6742 170.747 47.8542 171.374 47.8542 172.107V172.307C47.8542 172.947 47.7342 173.474 47.4942 173.887C47.2542 174.287 46.9676 174.6 46.6342 174.827C46.3142 175.04 46.0076 175.194 45.7142 175.287V175.647C46.0076 175.727 46.3276 175.88 46.6742 176.107C47.0209 176.32 47.3142 176.634 47.5542 177.047C47.8076 177.46 47.9342 178 47.9342 178.667V178.867C47.9342 179.64 47.7542 180.307 47.3942 180.867C47.0342 181.414 46.5342 181.834 45.8942 182.127C45.2676 182.42 44.5342 182.567 43.6942 182.567H36.4142ZM40.8942 180.167H43.3742C43.9476 180.167 44.4076 180.027 44.7542 179.747C45.1142 179.467 45.2942 179.067 45.2942 178.547V178.347C45.2942 177.827 45.1209 177.427 44.7742 177.147C44.4276 176.867 43.9609 176.727 43.3742 176.727H40.8942V180.167ZM40.8942 174.327H43.3342C43.8809 174.327 44.3276 174.187 44.6742 173.907C45.0342 173.627 45.2142 173.24 45.2142 172.747V172.547C45.2142 172.04 45.0409 171.654 44.6942 171.387C44.3476 171.107 43.8942 170.967 43.3342 170.967H40.8942V174.327ZM55.4955 182.847C54.3488 182.847 53.3622 182.64 52.5355 182.227C51.7222 181.8 51.0955 181.2 50.6555 180.427C50.2288 179.64 50.0155 178.714 50.0155 177.647V168.567H52.6555V177.727C52.6555 178.58 52.8955 179.254 53.3755 179.747C53.8688 180.24 54.5755 180.487 55.4955 180.487C56.4155 180.487 57.1155 180.24 57.5955 179.747C58.0888 179.254 58.3355 178.58 58.3355 177.727V168.567H60.9755V177.647C60.9755 178.714 60.7555 179.64 60.3155 180.427C59.8888 181.2 59.2622 181.8 58.4355 182.227C57.6222 182.64 56.6422 182.847 55.4955 182.847ZM63.533 182.567V168.567H66.173V182.567H63.533ZM68.8064 182.567V168.567H71.4464V180.167H77.8464V182.567H68.8064ZM79.2463 182.567V180.247H81.0863V170.887H79.2463V168.567H85.0063C86.8863 168.567 88.3129 169.047 89.2863 170.007C90.2729 170.954 90.7663 172.367 90.7663 174.247V176.887C90.7663 178.767 90.2729 180.187 89.2863 181.147C88.3129 182.094 86.8863 182.567 85.0063 182.567H79.2463ZM83.7263 180.167H85.0463C86.1129 180.167 86.8929 179.887 87.3863 179.327C87.8796 178.767 88.1263 177.98 88.1263 176.967V174.167C88.1263 173.14 87.8796 172.354 87.3863 171.807C86.8929 171.247 86.1129 170.967 85.0463 170.967H83.7263V180.167ZM92.9666 182.567V168.567H95.6066V182.567H92.9666ZM98.24 182.567V168.567H103.26L106.04 180.767H106.4V168.567H109V182.567H103.98L101.2 170.367H100.84V182.567H98.24ZM116.478 182.847C115.518 182.847 114.645 182.634 113.858 182.207C113.085 181.767 112.465 181.134 111.998 180.307C111.545 179.467 111.318 178.447 111.318 177.247V173.887C111.318 172.087 111.825 170.707 112.838 169.747C113.852 168.774 115.225 168.287 116.958 168.287C118.678 168.287 120.005 168.747 120.938 169.667C121.885 170.574 122.358 171.807 122.358 173.367V173.447H119.758V173.287C119.758 172.794 119.652 172.347 119.438 171.947C119.238 171.547 118.932 171.234 118.518 171.007C118.105 170.767 117.585 170.647 116.958 170.647C116.025 170.647 115.292 170.934 114.758 171.507C114.225 172.08 113.958 172.86 113.958 173.847V177.287C113.958 178.26 114.225 179.047 114.758 179.647C115.292 180.234 116.038 180.527 116.998 180.527C117.958 180.527 118.658 180.274 119.098 179.767C119.538 179.26 119.758 178.62 119.758 177.847V177.647H116.438V175.407H122.358V182.567H119.918V181.227H119.558C119.465 181.454 119.312 181.694 119.098 181.947C118.898 182.2 118.592 182.414 118.178 182.587C117.765 182.76 117.198 182.847 116.478 182.847ZM129.959 182.567V168.567H132.599V180.167H138.999V182.567H129.959ZM139.839 182.567L143.519 168.567H148.119L151.799 182.567H149.079L148.319 179.487H143.319L142.559 182.567H139.839ZM143.939 177.047H147.699L145.999 170.227H145.639L143.939 177.047ZM158.334 182.847C157.254 182.847 156.301 182.654 155.474 182.267C154.648 181.88 154.001 181.327 153.534 180.607C153.068 179.887 152.834 179.02 152.834 178.007V177.447H155.434V178.007C155.434 178.847 155.694 179.48 156.214 179.907C156.734 180.32 157.441 180.527 158.334 180.527C159.241 180.527 159.914 180.347 160.354 179.987C160.808 179.627 161.034 179.167 161.034 178.607C161.034 178.22 160.921 177.907 160.694 177.667C160.481 177.427 160.161 177.234 159.734 177.087C159.321 176.927 158.814 176.78 158.214 176.647L157.754 176.547C156.794 176.334 155.968 176.067 155.274 175.747C154.594 175.414 154.068 174.98 153.694 174.447C153.334 173.914 153.154 173.22 153.154 172.367C153.154 171.514 153.354 170.787 153.754 170.187C154.168 169.574 154.741 169.107 155.474 168.787C156.221 168.454 157.094 168.287 158.094 168.287C159.094 168.287 159.981 168.46 160.754 168.807C161.541 169.14 162.154 169.647 162.594 170.327C163.048 170.994 163.274 171.834 163.274 172.847V173.447H160.674V172.847C160.674 172.314 160.568 171.887 160.354 171.567C160.154 171.234 159.861 170.994 159.474 170.847C159.088 170.687 158.628 170.607 158.094 170.607C157.294 170.607 156.701 170.76 156.314 171.067C155.941 171.36 155.754 171.767 155.754 172.287C155.754 172.634 155.841 172.927 156.014 173.167C156.201 173.407 156.474 173.607 156.834 173.767C157.194 173.927 157.654 174.067 158.214 174.187L158.674 174.287C159.674 174.5 160.541 174.774 161.274 175.107C162.021 175.44 162.601 175.88 163.014 176.427C163.428 176.974 163.634 177.674 163.634 178.527C163.634 179.38 163.414 180.134 162.974 180.787C162.548 181.427 161.934 181.934 161.134 182.307C160.348 182.667 159.414 182.847 158.334 182.847ZM168.394 182.567V170.967H164.314V168.567H175.114V170.967H171.034V182.567H168.394ZM176.912 182.567V168.567H179.552V182.567H176.912ZM182.185 182.567V168.567H187.205L189.985 180.767H190.345V168.567H192.945V182.567H187.925L185.145 170.367H184.785V182.567H182.185ZM200.424 182.847C199.464 182.847 198.59 182.634 197.804 182.207C197.03 181.767 196.41 181.134 195.944 180.307C195.49 179.467 195.264 178.447 195.264 177.247V173.887C195.264 172.087 195.77 170.707 196.784 169.747C197.797 168.774 199.17 168.287 200.904 168.287C202.624 168.287 203.95 168.747 204.884 169.667C205.83 170.574 206.304 171.807 206.304 173.367V173.447H203.704V173.287C203.704 172.794 203.597 172.347 203.384 171.947C203.184 171.547 202.877 171.234 202.464 171.007C202.05 170.767 201.53 170.647 200.904 170.647C199.97 170.647 199.237 170.934 198.704 171.507C198.17 172.08 197.904 172.86 197.904 173.847V177.287C197.904 178.26 198.17 179.047 198.704 179.647C199.237 180.234 199.984 180.527 200.944 180.527C201.904 180.527 202.604 180.274 203.044 179.767C203.484 179.26 203.704 178.62 203.704 177.847V177.647H200.384V175.407H206.304V182.567H203.864V181.227H203.504C203.41 181.454 203.257 181.694 203.044 181.947C202.844 182.2 202.537 182.414 202.124 182.587C201.71 182.76 201.144 182.847 200.424 182.847ZM46.99 204.567V190.567H52.75C53.63 190.567 54.4034 190.747 55.07 191.107C55.75 191.454 56.2767 191.947 56.65 192.587C57.0367 193.227 57.23 193.987 57.23 194.867V195.147C57.23 196.014 57.03 196.774 56.63 197.427C56.2434 198.067 55.71 198.567 55.03 198.927C54.3634 199.274 53.6034 199.447 52.75 199.447H49.63V204.567H46.99ZM49.63 197.047H52.49C53.1167 197.047 53.6234 196.874 54.01 196.527C54.3967 196.18 54.59 195.707 54.59 195.107V194.907C54.59 194.307 54.3967 193.834 54.01 193.487C53.6234 193.14 53.1167 192.967 52.49 192.967H49.63V197.047ZM57.0261 204.567L60.7061 190.567H65.3061L68.9861 204.567H66.2661L65.5061 201.487H60.5061L59.7461 204.567H57.0261ZM61.1261 199.047H64.8861L63.1861 192.227H62.8261L61.1261 199.047ZM70.6619 204.567V190.567H76.7419C77.6219 190.567 78.3886 190.72 79.0419 191.027C79.6952 191.334 80.2019 191.767 80.5619 192.327C80.9219 192.887 81.1019 193.547 81.1019 194.307V194.547C81.1019 195.387 80.9019 196.067 80.5019 196.587C80.1019 197.107 79.6086 197.487 79.0219 197.727V198.087C79.5552 198.114 79.9686 198.3 80.2619 198.647C80.5552 198.98 80.7019 199.427 80.7019 199.987V204.567H78.0619V200.367C78.0619 200.047 77.9752 199.787 77.8019 199.587C77.6419 199.387 77.3686 199.287 76.9819 199.287H73.3019V204.567H70.6619ZM73.3019 196.887H76.4619C77.0886 196.887 77.5752 196.72 77.9219 196.387C78.2819 196.04 78.4619 195.587 78.4619 195.027V194.827C78.4619 194.267 78.2886 193.82 77.9419 193.487C77.5952 193.14 77.1019 192.967 76.4619 192.967H73.3019V196.887ZM86.3042 204.567V192.967H82.2242V190.567H93.0242V192.967H88.9442V204.567H86.3042ZM94.8221 204.567V190.567H99.8421L102.622 202.767H102.982V190.567H105.582V204.567H100.562L97.7821 192.367H97.4221V204.567H94.8221ZM108.22 204.567V190.567H117.22V192.967H110.86V196.307H116.66V198.707H110.86V202.167H117.34V204.567H108.22ZM119.295 204.567V190.567H125.375C126.255 190.567 127.021 190.72 127.675 191.027C128.328 191.334 128.835 191.767 129.195 192.327C129.555 192.887 129.735 193.547 129.735 194.307V194.547C129.735 195.387 129.535 196.067 129.135 196.587C128.735 197.107 128.241 197.487 127.655 197.727V198.087C128.188 198.114 128.601 198.3 128.895 198.647C129.188 198.98 129.335 199.427 129.335 199.987V204.567H126.695V200.367C126.695 200.047 126.608 199.787 126.435 199.587C126.275 199.387 126.001 199.287 125.615 199.287H121.935V204.567H119.295ZM121.935 196.887H125.095C125.721 196.887 126.208 196.72 126.555 196.387C126.915 196.04 127.095 195.587 127.095 195.027V194.827C127.095 194.267 126.921 193.82 126.575 193.487C126.228 193.14 125.735 192.967 125.095 192.967H121.935V196.887ZM136.791 204.847C135.711 204.847 134.758 204.654 133.931 204.267C133.105 203.88 132.458 203.327 131.991 202.607C131.525 201.887 131.291 201.02 131.291 200.007V199.447H133.891V200.007C133.891 200.847 134.151 201.48 134.671 201.907C135.191 202.32 135.898 202.527 136.791 202.527C137.698 202.527 138.371 202.347 138.811 201.987C139.265 201.627 139.491 201.167 139.491 200.607C139.491 200.22 139.378 199.907 139.151 199.667C138.938 199.427 138.618 199.234 138.191 199.087C137.778 198.927 137.271 198.78 136.671 198.647L136.211 198.547C135.251 198.334 134.425 198.067 133.731 197.747C133.051 197.414 132.525 196.98 132.151 196.447C131.791 195.914 131.611 195.22 131.611 194.367C131.611 193.514 131.811 192.787 132.211 192.187C132.625 191.574 133.198 191.107 133.931 190.787C134.678 190.454 135.551 190.287 136.551 190.287C137.551 190.287 138.438 190.46 139.211 190.807C139.998 191.14 140.611 191.647 141.051 192.327C141.505 192.994 141.731 193.834 141.731 194.847V195.447H139.131V194.847C139.131 194.314 139.025 193.887 138.811 193.567C138.611 193.234 138.318 192.994 137.931 192.847C137.545 192.687 137.085 192.607 136.551 192.607C135.751 192.607 135.158 192.76 134.771 193.067C134.398 193.36 134.211 193.767 134.211 194.287C134.211 194.634 134.298 194.927 134.471 195.167C134.658 195.407 134.931 195.607 135.291 195.767C135.651 195.927 136.111 196.067 136.671 196.187L137.131 196.287C138.131 196.5 138.998 196.774 139.731 197.107C140.478 197.44 141.058 197.88 141.471 198.427C141.885 198.974 142.091 199.674 142.091 200.527C142.091 201.38 141.871 202.134 141.431 202.787C141.005 203.427 140.391 203.934 139.591 204.307C138.805 204.667 137.871 204.847 136.791 204.847ZM144.06 204.567V190.567H146.7V196.347H151.9V190.567H154.54V204.567H151.9V198.747H146.7V204.567H144.06ZM157.185 204.567V190.567H159.825V204.567H157.185ZM162.459 204.567V190.567H168.219C169.099 190.567 169.872 190.747 170.539 191.107C171.219 191.454 171.745 191.947 172.119 192.587C172.505 193.227 172.699 193.987 172.699 194.867V195.147C172.699 196.014 172.499 196.774 172.099 197.427C171.712 198.067 171.179 198.567 170.499 198.927C169.832 199.274 169.072 199.447 168.219 199.447H165.099V204.567H162.459ZM165.099 197.047H167.959C168.585 197.047 169.092 196.874 169.479 196.527C169.865 196.18 170.059 195.707 170.059 195.107V194.907C170.059 194.307 169.865 193.834 169.479 193.487C169.092 193.14 168.585 192.967 167.959 192.967H165.099V197.047ZM179.389 204.847C178.309 204.847 177.356 204.654 176.529 204.267C175.702 203.88 175.056 203.327 174.589 202.607C174.122 201.887 173.889 201.02 173.889 200.007V199.447H176.489V200.007C176.489 200.847 176.749 201.48 177.269 201.907C177.789 202.32 178.496 202.527 179.389 202.527C180.296 202.527 180.969 202.347 181.409 201.987C181.862 201.627 182.089 201.167 182.089 200.607C182.089 200.22 181.976 199.907 181.749 199.667C181.536 199.427 181.216 199.234 180.789 199.087C180.376 198.927 179.869 198.78 179.269 198.647L178.809 198.547C177.849 198.334 177.022 198.067 176.329 197.747C175.649 197.414 175.122 196.98 174.749 196.447C174.389 195.914 174.209 195.22 174.209 194.367C174.209 193.514 174.409 192.787 174.809 192.187C175.222 191.574 175.796 191.107 176.529 190.787C177.276 190.454 178.149 190.287 179.149 190.287C180.149 190.287 181.036 190.46 181.809 190.807C182.596 191.14 183.209 191.647 183.649 192.327C184.102 192.994 184.329 193.834 184.329 194.847V195.447H181.729V194.847C181.729 194.314 181.622 193.887 181.409 193.567C181.209 193.234 180.916 192.994 180.529 192.847C180.142 192.687 179.682 192.607 179.149 192.607C178.349 192.607 177.756 192.76 177.369 193.067C176.996 193.36 176.809 193.767 176.809 194.287C176.809 194.634 176.896 194.927 177.069 195.167C177.256 195.407 177.529 195.607 177.889 195.767C178.249 195.927 178.709 196.067 179.269 196.187L179.729 196.287C180.729 196.5 181.596 196.774 182.329 197.107C183.076 197.44 183.656 197.88 184.069 198.427C184.482 198.974 184.689 199.674 184.689 200.527C184.689 201.38 184.469 202.134 184.029 202.787C183.602 203.427 182.989 203.934 182.189 204.307C181.402 204.667 180.469 204.847 179.389 204.847Z" fill="#FDFAF7"/>
</svg>
