<svg width="244" height="291" viewBox="0 0 244 291" fill="none" xmlns="http://www.w3.org/2000/svg">
<path d="M121.74 0L1.28564 73.32L1.28564 218.912L121.74 290.138L242.718 218.912V73.32L121.74 0Z" fill="#7A2020"/>
<path d="M121.279 22.4937L19.5029 84.4441L19.5029 207.46L121.279 267.641L223.497 207.46V84.4441L121.279 22.4937Z" stroke="#5E1818" stroke-width="2"/>
<path d="M154.312 131.505H151.969V96.3484C151.969 95.7268 151.722 95.1306 151.282 94.6911C150.843 94.2516 150.247 94.0046 149.625 94.0046H130.875C130.253 94.0046 129.657 94.2516 129.218 94.6911C128.778 95.1306 128.531 95.7268 128.531 96.3484V108.067H114.469V82.2859C114.469 81.6643 114.222 81.0681 113.782 80.6286C113.343 80.1891 112.747 79.9421 112.125 79.9421H93.375C92.7534 79.9421 92.1573 80.1891 91.7177 80.6286C91.2782 81.0681 91.0312 81.6643 91.0312 82.2859V131.505H88.6875C88.0659 131.505 87.4698 131.752 87.0302 132.191C86.5907 132.631 86.3438 133.227 86.3438 133.848C86.3438 134.47 86.5907 135.066 87.0302 135.506C87.4698 135.945 88.0659 136.192 88.6875 136.192H154.312C154.934 136.192 155.53 135.945 155.97 135.506C156.409 135.066 156.656 134.47 156.656 133.848C156.656 133.227 156.409 132.631 155.97 132.191C155.53 131.752 154.934 131.505 154.312 131.505ZM133.219 98.6921H147.281V131.505H133.219V98.6921ZM128.531 112.755V131.505H114.469V112.755H128.531ZM95.7188 84.6296H109.781V131.505H95.7188V84.6296ZM105.094 91.6609V96.3484C105.094 96.97 104.847 97.5661 104.407 98.0057C103.968 98.4452 103.372 98.6921 102.75 98.6921C102.128 98.6921 101.532 98.4452 101.093 98.0057C100.653 97.5661 100.406 96.97 100.406 96.3484V91.6609C100.406 91.0393 100.653 90.4431 101.093 90.0036C101.532 89.5641 102.128 89.3171 102.75 89.3171C103.372 89.3171 103.968 89.5641 104.407 90.0036C104.847 90.4431 105.094 91.0393 105.094 91.6609ZM105.094 105.723V110.411C105.094 111.032 104.847 111.629 104.407 112.068C103.968 112.508 103.372 112.755 102.75 112.755C102.128 112.755 101.532 112.508 101.093 112.068C100.653 111.629 100.406 111.032 100.406 110.411V105.723C100.406 105.102 100.653 104.506 101.093 104.066C101.532 103.627 102.128 103.38 102.75 103.38C103.372 103.38 103.968 103.627 104.407 104.066C104.847 104.506 105.094 105.102 105.094 105.723ZM105.094 119.786V124.473C105.094 125.095 104.847 125.691 104.407 126.131C103.968 126.57 103.372 126.817 102.75 126.817C102.128 126.817 101.532 126.57 101.093 126.131C100.653 125.691 100.406 125.095 100.406 124.473V119.786C100.406 119.164 100.653 118.568 101.093 118.129C101.532 117.689 102.128 117.442 102.75 117.442C103.372 117.442 103.968 117.689 104.407 118.129C104.847 118.568 105.094 119.164 105.094 119.786ZM119.156 124.473V119.786C119.156 119.164 119.403 118.568 119.843 118.129C120.282 117.689 120.878 117.442 121.5 117.442C122.122 117.442 122.718 117.689 123.157 118.129C123.597 118.568 123.844 119.164 123.844 119.786V124.473C123.844 125.095 123.597 125.691 123.157 126.131C122.718 126.57 122.122 126.817 121.5 126.817C120.878 126.817 120.282 126.57 119.843 126.131C119.403 125.691 119.156 125.095 119.156 124.473ZM137.906 124.473V119.786C137.906 119.164 138.153 118.568 138.593 118.129C139.032 117.689 139.628 117.442 140.25 117.442C140.872 117.442 141.468 117.689 141.907 118.129C142.347 118.568 142.594 119.164 142.594 119.786V124.473C142.594 125.095 142.347 125.691 141.907 126.131C141.468 126.57 140.872 126.817 140.25 126.817C139.628 126.817 139.032 126.57 138.593 126.131C138.153 125.691 137.906 125.095 137.906 124.473ZM137.906 110.411V105.723C137.906 105.102 138.153 104.506 138.593 104.066C139.032 103.627 139.628 103.38 140.25 103.38C140.872 103.38 141.468 103.627 141.907 104.066C142.347 104.506 142.594 105.102 142.594 105.723V110.411C142.594 111.032 142.347 111.629 141.907 112.068C141.468 112.508 140.872 112.755 140.25 112.755C139.628 112.755 139.032 112.508 138.593 112.068C138.153 111.629 137.906 111.032 137.906 110.411Z" fill="#FDFAF7"/>
<path d="M60.7866 171.847C59.0533 171.847 57.6799 171.367 56.6666 170.407C55.6533 169.434 55.1466 168.047 55.1466 166.247V162.887C55.1466 161.087 55.6533 159.707 56.6666 158.747C57.6799 157.774 59.0533 157.287 60.7866 157.287C62.5066 157.287 63.8333 157.76 64.7666 158.707C65.7133 159.64 66.1866 160.927 66.1866 162.567V162.687H63.5866V162.487C63.5866 161.66 63.3533 160.98 62.8866 160.447C62.4333 159.914 61.7333 159.647 60.7866 159.647C59.8533 159.647 59.1199 159.934 58.5866 160.507C58.0533 161.08 57.7866 161.86 57.7866 162.847V166.287C57.7866 167.26 58.0533 168.04 58.5866 168.627C59.1199 169.2 59.8533 169.487 60.7866 169.487C61.7333 169.487 62.4333 169.22 62.8866 168.687C63.3533 168.14 63.5866 167.46 63.5866 166.647V166.287H66.1866V166.567C66.1866 168.207 65.7133 169.5 64.7666 170.447C63.8333 171.38 62.5066 171.847 60.7866 171.847ZM73.7777 171.847C72.0177 171.847 70.6177 171.367 69.5777 170.407C68.5377 169.434 68.0177 168.047 68.0177 166.247V162.887C68.0177 161.087 68.5377 159.707 69.5777 158.747C70.6177 157.774 72.0177 157.287 73.7777 157.287C75.5377 157.287 76.9377 157.774 77.9777 158.747C79.0177 159.707 79.5377 161.087 79.5377 162.887V166.247C79.5377 168.047 79.0177 169.434 77.9777 170.407C76.9377 171.367 75.5377 171.847 73.7777 171.847ZM73.7777 169.487C74.7644 169.487 75.531 169.2 76.0777 168.627C76.6244 168.054 76.8977 167.287 76.8977 166.327V162.807C76.8977 161.847 76.6244 161.08 76.0777 160.507C75.531 159.934 74.7644 159.647 73.7777 159.647C72.8044 159.647 72.0377 159.934 71.4777 160.507C70.931 161.08 70.6577 161.847 70.6577 162.807V166.327C70.6577 167.287 70.931 168.054 71.4777 168.627C72.0377 169.2 72.8044 169.487 73.7777 169.487ZM81.8533 171.567V157.567H86.7533L89.1733 169.767H89.5333L91.9533 157.567H96.8533V171.567H94.2933V159.507H93.9333L91.5333 171.567H87.1733L84.7733 159.507H84.4133V171.567H81.8533ZM99.49 171.567V157.567H104.39L106.81 169.767H107.17L109.59 157.567H114.49V171.567H111.93V159.507H111.57L109.17 171.567H104.81L102.41 159.507H102.05V171.567H99.49ZM122.527 171.847C121.38 171.847 120.393 171.64 119.567 171.227C118.753 170.8 118.127 170.2 117.687 169.427C117.26 168.64 117.047 167.714 117.047 166.647V157.567H119.687V166.727C119.687 167.58 119.927 168.254 120.407 168.747C120.9 169.24 121.607 169.487 122.527 169.487C123.447 169.487 124.147 169.24 124.627 168.747C125.12 168.254 125.367 167.58 125.367 166.727V157.567H128.007V166.647C128.007 167.714 127.787 168.64 127.347 169.427C126.92 170.2 126.293 170.8 125.467 171.227C124.653 171.64 123.673 171.847 122.527 171.847ZM130.564 171.567V157.567H135.584L138.364 169.767H138.724V157.567H141.324V171.567H136.304L133.524 159.367H133.164V171.567H130.564ZM143.963 171.567V157.567H146.603V171.567H143.963ZM152.476 171.567V159.967H148.396V157.567H159.196V159.967H155.116V171.567H152.476ZM164.594 171.567V166.747L159.834 157.567H162.774L165.734 163.567H166.094L169.054 157.567H171.994L167.234 166.747V171.567H164.594ZM181.737 171.567C180.911 171.567 180.184 171.42 179.557 171.127C178.944 170.82 178.464 170.387 178.117 169.827C177.771 169.254 177.597 168.574 177.597 167.787C177.597 167.214 177.697 166.714 177.897 166.287C178.111 165.86 178.397 165.507 178.757 165.227C179.117 164.947 179.517 164.74 179.957 164.607V164.327C179.291 164.127 178.744 163.78 178.317 163.287C177.891 162.794 177.677 162.14 177.677 161.327C177.677 160.514 177.857 159.827 178.217 159.267C178.577 158.707 179.064 158.287 179.677 158.007C180.304 157.714 181.017 157.567 181.817 157.567H183.997V159.647H182.277C181.677 159.647 181.177 159.807 180.777 160.127C180.391 160.447 180.197 160.92 180.197 161.547C180.197 161.987 180.291 162.347 180.477 162.627C180.677 162.907 180.931 163.114 181.237 163.247C181.557 163.38 181.904 163.447 182.277 163.447H184.217V161.647H186.737V163.447H188.577V165.527H186.737V171.567H181.737ZM182.197 169.487H184.217V165.527H182.197C181.611 165.527 181.117 165.694 180.717 166.027C180.317 166.36 180.117 166.854 180.117 167.507C180.117 168.174 180.324 168.674 180.737 169.007C181.164 169.327 181.651 169.487 182.197 169.487ZM46.9575 193.847C45.8775 193.847 44.9241 193.654 44.0975 193.267C43.2708 192.88 42.6241 192.327 42.1575 191.607C41.6908 190.887 41.4575 190.02 41.4575 189.007V188.447H44.0575V189.007C44.0575 189.847 44.3175 190.48 44.8375 190.907C45.3575 191.32 46.0641 191.527 46.9575 191.527C47.8641 191.527 48.5375 191.347 48.9775 190.987C49.4308 190.627 49.6575 190.167 49.6575 189.607C49.6575 189.22 49.5441 188.907 49.3175 188.667C49.1041 188.427 48.7841 188.234 48.3575 188.087C47.9441 187.927 47.4375 187.78 46.8375 187.647L46.3775 187.547C45.4175 187.334 44.5908 187.067 43.8975 186.747C43.2175 186.414 42.6908 185.98 42.3175 185.447C41.9575 184.914 41.7775 184.22 41.7775 183.367C41.7775 182.514 41.9775 181.787 42.3775 181.187C42.7908 180.574 43.3641 180.107 44.0975 179.787C44.8441 179.454 45.7175 179.287 46.7175 179.287C47.7175 179.287 48.6041 179.46 49.3775 179.807C50.1641 180.14 50.7775 180.647 51.2175 181.327C51.6708 181.994 51.8975 182.834 51.8975 183.847V184.447H49.2975V183.847C49.2975 183.314 49.1908 182.887 48.9775 182.567C48.7775 182.234 48.4841 181.994 48.0975 181.847C47.7108 181.687 47.2508 181.607 46.7175 181.607C45.9175 181.607 45.3241 181.76 44.9375 182.067C44.5641 182.36 44.3775 182.767 44.3775 183.287C44.3775 183.634 44.4641 183.927 44.6375 184.167C44.8241 184.407 45.0975 184.607 45.4575 184.767C45.8175 184.927 46.2775 185.067 46.8375 185.187L47.2975 185.287C48.2975 185.5 49.1641 185.774 49.8975 186.107C50.6441 186.44 51.2241 186.88 51.6375 187.427C52.0508 187.974 52.2575 188.674 52.2575 189.527C52.2575 190.38 52.0375 191.134 51.5975 191.787C51.1708 192.427 50.5575 192.934 49.7575 193.307C48.9708 193.667 48.0375 193.847 46.9575 193.847ZM54.2264 193.567V179.567H59.1264L61.5464 191.767H61.9064L64.3264 179.567H69.2264V193.567H66.6664V181.507H66.3064L63.9064 193.567H59.5464L57.1464 181.507H56.7864V193.567H54.2264ZM70.9031 193.567L74.5831 179.567H79.1831L82.8631 193.567H80.1431L79.3831 190.487H74.3831L73.6231 193.567H70.9031ZM75.0031 188.047H78.7631L77.0631 181.227H76.7031L75.0031 188.047ZM84.5389 193.567V179.567H87.1789V191.167H93.5789V193.567H84.5389ZM95.3787 193.567V179.567H98.0187V191.167H104.419V193.567H95.3787ZM110.291 193.567V191.247H112.131V181.887H110.291V179.567H117.491C118.345 179.567 119.085 179.714 119.711 180.007C120.351 180.287 120.845 180.694 121.191 181.227C121.551 181.747 121.731 182.374 121.731 183.107V183.307C121.731 183.947 121.611 184.474 121.371 184.887C121.131 185.287 120.845 185.6 120.511 185.827C120.191 186.04 119.885 186.194 119.591 186.287V186.647C119.885 186.727 120.205 186.88 120.551 187.107C120.898 187.32 121.191 187.634 121.431 188.047C121.685 188.46 121.811 189 121.811 189.667V189.867C121.811 190.64 121.631 191.307 121.271 191.867C120.911 192.414 120.411 192.834 119.771 193.127C119.145 193.42 118.411 193.567 117.571 193.567H110.291ZM114.771 191.167H117.251C117.825 191.167 118.285 191.027 118.631 190.747C118.991 190.467 119.171 190.067 119.171 189.547V189.347C119.171 188.827 118.998 188.427 118.651 188.147C118.305 187.867 117.838 187.727 117.251 187.727H114.771V191.167ZM114.771 185.327H117.211C117.758 185.327 118.205 185.187 118.551 184.907C118.911 184.627 119.091 184.24 119.091 183.747V183.547C119.091 183.04 118.918 182.654 118.571 182.387C118.225 182.107 117.771 181.967 117.211 181.967H114.771V185.327ZM129.372 193.847C128.226 193.847 127.239 193.64 126.412 193.227C125.599 192.8 124.972 192.2 124.532 191.427C124.106 190.64 123.892 189.714 123.892 188.647V179.567H126.532V188.727C126.532 189.58 126.772 190.254 127.252 190.747C127.746 191.24 128.452 191.487 129.372 191.487C130.292 191.487 130.992 191.24 131.472 190.747C131.966 190.254 132.212 189.58 132.212 188.727V179.567H134.852V188.647C134.852 189.714 134.632 190.64 134.192 191.427C133.766 192.2 133.139 192.8 132.312 193.227C131.499 193.64 130.519 193.847 129.372 193.847ZM142.27 193.847C141.19 193.847 140.237 193.654 139.41 193.267C138.583 192.88 137.937 192.327 137.47 191.607C137.003 190.887 136.77 190.02 136.77 189.007V188.447H139.37V189.007C139.37 189.847 139.63 190.48 140.15 190.907C140.67 191.32 141.377 191.527 142.27 191.527C143.177 191.527 143.85 191.347 144.29 190.987C144.743 190.627 144.97 190.167 144.97 189.607C144.97 189.22 144.857 188.907 144.63 188.667C144.417 188.427 144.097 188.234 143.67 188.087C143.257 187.927 142.75 187.78 142.15 187.647L141.69 187.547C140.73 187.334 139.903 187.067 139.21 186.747C138.53 186.414 138.003 185.98 137.63 185.447C137.27 184.914 137.09 184.22 137.09 183.367C137.09 182.514 137.29 181.787 137.69 181.187C138.103 180.574 138.677 180.107 139.41 179.787C140.157 179.454 141.03 179.287 142.03 179.287C143.03 179.287 143.917 179.46 144.69 179.807C145.477 180.14 146.09 180.647 146.53 181.327C146.983 181.994 147.21 182.834 147.21 183.847V184.447H144.61V183.847C144.61 183.314 144.503 182.887 144.29 182.567C144.09 182.234 143.797 181.994 143.41 181.847C143.023 181.687 142.563 181.607 142.03 181.607C141.23 181.607 140.637 181.76 140.25 182.067C139.877 182.36 139.69 182.767 139.69 183.287C139.69 183.634 139.777 183.927 139.95 184.167C140.137 184.407 140.41 184.607 140.77 184.767C141.13 184.927 141.59 185.067 142.15 185.187L142.61 185.287C143.61 185.5 144.477 185.774 145.21 186.107C145.957 186.44 146.537 186.88 146.95 187.427C147.363 187.974 147.57 188.674 147.57 189.527C147.57 190.38 147.35 191.134 146.91 191.787C146.483 192.427 145.87 192.934 145.07 193.307C144.283 193.667 143.35 193.847 142.27 193.847ZM149.539 193.567V179.567H152.179V193.567H149.539ZM154.812 193.567V179.567H159.832L162.612 191.767H162.972V179.567H165.572V193.567H160.552L157.772 181.367H157.412V193.567H154.812ZM168.211 193.567V179.567H177.211V181.967H170.851V185.307H176.651V187.707H170.851V191.167H177.331V193.567H168.211ZM184.145 193.847C183.065 193.847 182.112 193.654 181.285 193.267C180.458 192.88 179.812 192.327 179.345 191.607C178.878 190.887 178.645 190.02 178.645 189.007V188.447H181.245V189.007C181.245 189.847 181.505 190.48 182.025 190.907C182.545 191.32 183.252 191.527 184.145 191.527C185.052 191.527 185.725 191.347 186.165 190.987C186.618 190.627 186.845 190.167 186.845 189.607C186.845 189.22 186.732 188.907 186.505 188.667C186.292 188.427 185.972 188.234 185.545 188.087C185.132 187.927 184.625 187.78 184.025 187.647L183.565 187.547C182.605 187.334 181.778 187.067 181.085 186.747C180.405 186.414 179.878 185.98 179.505 185.447C179.145 184.914 178.965 184.22 178.965 183.367C178.965 182.514 179.165 181.787 179.565 181.187C179.978 180.574 180.552 180.107 181.285 179.787C182.032 179.454 182.905 179.287 183.905 179.287C184.905 179.287 185.792 179.46 186.565 179.807C187.352 180.14 187.965 180.647 188.405 181.327C188.858 181.994 189.085 182.834 189.085 183.847V184.447H186.485V183.847C186.485 183.314 186.378 182.887 186.165 182.567C185.965 182.234 185.672 181.994 185.285 181.847C184.898 181.687 184.438 181.607 183.905 181.607C183.105 181.607 182.512 181.76 182.125 182.067C181.752 182.36 181.565 182.767 181.565 183.287C181.565 183.634 181.652 183.927 181.825 184.167C182.012 184.407 182.285 184.607 182.645 184.767C183.005 184.927 183.465 185.067 184.025 185.187L184.485 185.287C185.485 185.5 186.352 185.774 187.085 186.107C187.832 186.44 188.412 186.88 188.825 187.427C189.238 187.974 189.445 188.674 189.445 189.527C189.445 190.38 189.225 191.134 188.785 191.787C188.358 192.427 187.745 192.934 186.945 193.307C186.158 193.667 185.225 193.847 184.145 193.847ZM196.274 193.847C195.194 193.847 194.241 193.654 193.414 193.267C192.587 192.88 191.941 192.327 191.474 191.607C191.007 190.887 190.774 190.02 190.774 189.007V188.447H193.374V189.007C193.374 189.847 193.634 190.48 194.154 190.907C194.674 191.32 195.381 191.527 196.274 191.527C197.181 191.527 197.854 191.347 198.294 190.987C198.747 190.627 198.974 190.167 198.974 189.607C198.974 189.22 198.861 188.907 198.634 188.667C198.421 188.427 198.101 188.234 197.674 188.087C197.261 187.927 196.754 187.78 196.154 187.647L195.694 187.547C194.734 187.334 193.907 187.067 193.214 186.747C192.534 186.414 192.007 185.98 191.634 185.447C191.274 184.914 191.094 184.22 191.094 183.367C191.094 182.514 191.294 181.787 191.694 181.187C192.107 180.574 192.681 180.107 193.414 179.787C194.161 179.454 195.034 179.287 196.034 179.287C197.034 179.287 197.921 179.46 198.694 179.807C199.481 180.14 200.094 180.647 200.534 181.327C200.987 181.994 201.214 182.834 201.214 183.847V184.447H198.614V183.847C198.614 183.314 198.507 182.887 198.294 182.567C198.094 182.234 197.801 181.994 197.414 181.847C197.027 181.687 196.567 181.607 196.034 181.607C195.234 181.607 194.641 181.76 194.254 182.067C193.881 182.36 193.694 182.767 193.694 183.287C193.694 183.634 193.781 183.927 193.954 184.167C194.141 184.407 194.414 184.607 194.774 184.767C195.134 184.927 195.594 185.067 196.154 185.187L196.614 185.287C197.614 185.5 198.481 185.774 199.214 186.107C199.961 186.44 200.541 186.88 200.954 187.427C201.367 187.974 201.574 188.674 201.574 189.527C201.574 190.38 201.354 191.134 200.914 191.787C200.487 192.427 199.874 192.934 199.074 193.307C198.287 193.667 197.354 193.847 196.274 193.847ZM61.8608 215.847C60.1275 215.847 58.7541 215.367 57.7408 214.407C56.7275 213.434 56.2208 212.047 56.2208 210.247V206.887C56.2208 205.087 56.7275 203.707 57.7408 202.747C58.7541 201.774 60.1275 201.287 61.8608 201.287C63.5808 201.287 64.9075 201.76 65.8408 202.707C66.7875 203.64 67.2608 204.927 67.2608 206.567V206.687H64.6608V206.487C64.6608 205.66 64.4275 204.98 63.9608 204.447C63.5075 203.914 62.8075 203.647 61.8608 203.647C60.9275 203.647 60.1941 203.934 59.6608 204.507C59.1275 205.08 58.8608 205.86 58.8608 206.847V210.287C58.8608 211.26 59.1275 212.04 59.6608 212.627C60.1941 213.2 60.9275 213.487 61.8608 213.487C62.8075 213.487 63.5075 213.22 63.9608 212.687C64.4275 212.14 64.6608 211.46 64.6608 210.647V210.287H67.2608V210.567C67.2608 212.207 66.7875 213.5 65.8408 214.447C64.9075 215.38 63.5808 215.847 61.8608 215.847ZM74.8519 215.847C73.0919 215.847 71.6919 215.367 70.6519 214.407C69.6119 213.434 69.0919 212.047 69.0919 210.247V206.887C69.0919 205.087 69.6119 203.707 70.6519 202.747C71.6919 201.774 73.0919 201.287 74.8519 201.287C76.6119 201.287 78.0119 201.774 79.0519 202.747C80.0919 203.707 80.6119 205.087 80.6119 206.887V210.247C80.6119 212.047 80.0919 213.434 79.0519 214.407C78.0119 215.367 76.6119 215.847 74.8519 215.847ZM74.8519 213.487C75.8386 213.487 76.6052 213.2 77.1519 212.627C77.6986 212.054 77.9719 211.287 77.9719 210.327V206.807C77.9719 205.847 77.6986 205.08 77.1519 204.507C76.6052 203.934 75.8386 203.647 74.8519 203.647C73.8786 203.647 73.1119 203.934 72.5519 204.507C72.0052 205.08 71.7319 205.847 71.7319 206.807V210.327C71.7319 211.287 72.0052 212.054 72.5519 212.627C73.1119 213.2 73.8786 213.487 74.8519 213.487ZM82.9275 215.567V201.567H87.8275L90.2475 213.767H90.6075L93.0275 201.567H97.9275V215.567H95.3675V203.507H95.0075L92.6075 215.567H88.2475L85.8475 203.507H85.4875V215.567H82.9275ZM100.564 215.567V201.567H105.464L107.884 213.767H108.244L110.664 201.567H115.564V215.567H113.004V203.507H112.644L110.244 215.567H105.884L103.484 203.507H103.124V215.567H100.564ZM118.201 215.567V201.567H120.841V215.567H118.201ZM126.714 215.567V203.967H122.634V201.567H133.434V203.967H129.354V215.567H126.714ZM135.232 215.567V201.567H140.132L142.552 213.767H142.912L145.332 201.567H150.232V215.567H147.672V203.507H147.312L144.912 215.567H140.552L138.152 203.507H137.792V215.567H135.232ZM152.869 215.567V201.567H161.869V203.967H155.509V207.307H161.309V209.707H155.509V213.167H161.989V215.567H152.869ZM163.943 215.567V201.567H168.963L171.743 213.767H172.103V201.567H174.703V215.567H169.683L166.903 203.367H166.543V215.567H163.943ZM180.582 215.567V203.967H176.502V201.567H187.302V203.967H183.222V215.567H180.582Z" fill="#FDFAF7"/>
</svg>
