<svg width="600" height="276" viewBox="0 0 600 276" fill="none" xmlns="http://www.w3.org/2000/svg">
<path d="M513.376 72.8468C517.526 72.8087 524.385 71.724 526.595 75.7009C529.147 80.2941 531.75 84.8925 534.311 89.4872L549.088 115.83C551.094 111.417 572.369 74.7747 574.026 73.5348C575.441 72.4762 592.743 72.6987 595.358 73.1077L595.594 73.5688C595.34 76.3972 585.349 91.9677 583.122 95.6994C575.592 108.404 567.923 121.026 560.121 133.565C561.058 135.551 563.545 139.512 564.736 141.554L573.427 156.51C581.917 170.944 590.265 185.459 598.474 200.053C592.235 200.243 585.503 200.175 579.225 200.224L576.466 200.053C574.224 196.87 569.681 188.443 567.471 184.626C561.064 173.709 554.765 162.729 548.574 151.688C546.08 156.874 522.725 197.121 519.526 200.03C516.309 200.171 501.237 200.335 498.708 199.907L498.375 199.32C498.401 197.819 521.074 160.619 523.715 156.314C526.737 151.459 529.727 146.586 532.687 141.694C534.172 139.238 536.208 136.088 537.357 133.524C535.133 128.943 532.261 124.48 529.721 120.042L511.612 88.3774C508.832 83.4934 505.343 77.9832 502.959 73.0602C506.23 72.8719 510.026 72.9387 513.376 72.8468Z" fill="#FBFBFB"/>
<path d="M417.961 72.8512L454.397 72.8627C458.287 72.8503 471.451 72.558 474.446 73.2505C475.412 74.8252 474.754 88.383 474.677 91.0291C457.977 91.0929 440.743 91.3214 424.076 91.1136C423.863 93.919 424.002 98.0874 424.011 101.055L424.109 121.538C439.957 121.104 457.954 122.132 473.495 121.262C473.179 127.267 473.215 133.706 473.271 139.72L441.987 139.775C436.214 139.785 429.76 139.925 424.052 139.711C423.73 146.329 424.011 155.398 424.026 162.184L424.017 181.775C429.754 181.988 436.749 181.81 442.572 181.807C453.348 181.83 464.128 181.793 474.907 181.697C475.079 187.608 474.588 194.44 474.94 200.091L404.538 200.156C404.109 195.634 404.292 189.168 404.31 184.49L404.381 159.281L404.334 72.9863L417.961 72.8512Z" fill="#FBFBFB"/>
<path d="M333.01 72.8412C334.33 72.8057 336.581 72.9703 337.961 73.0288C337.61 99.055 337.521 125.084 337.692 151.112C337.716 161.338 337.985 171.503 337.751 181.744C349.198 182.279 363.443 181.661 375.124 181.758C374.778 187.106 375.005 194.508 375.053 200.01C370.746 200.082 366.439 200.122 362.132 200.131C347.742 200.119 332.413 200.455 318.136 200.113C317.717 190.336 317.909 179.429 317.917 169.579L317.979 120.057L317.977 89.5838C317.982 84.8485 317.782 77.3755 318.287 73.0303C321.722 72.6996 329.167 72.9248 333.01 72.8412Z" fill="#FBFBFB"/>
<path d="M266.923 72.8506C267.676 72.8166 270.065 72.9972 270.926 73.0413L270.913 185.401C270.914 189.486 270.739 196.255 271.266 200.112L256.785 200.173L251.514 200.212C250.964 184.549 251.427 166.105 251.436 150.255L251.45 73.0111C256.585 72.8749 261.742 72.996 266.923 72.8506Z" fill="#FBFBFB"/>
<path d="M267.831 211.232C271.595 211.294 275.567 211.102 278.686 213.561C283.481 217.342 282.519 222.807 279.096 227.032C274.869 229.842 272.684 229.135 267.765 229.581C267.843 223.287 267.937 217.538 267.831 211.232ZM277.1 224.965C281.773 218.756 277.774 213.847 270.561 213.963C270.587 216.862 270.101 224.225 271.129 226.213C272.965 227.678 275.561 226.364 277.1 224.965Z" fill="#FBFBFB"/>
<path d="M390.213 211.075C396.352 210.791 396.582 215.886 392.364 219.578L395.554 223.147C396.175 222.449 396.488 222.171 397.2 221.572C398.201 221.372 397.835 221.3 398.615 221.759C399.105 223.452 398.239 224.145 397.241 225.382C398.006 226.399 399.87 227.964 399.746 229.169C399.002 229.598 398.083 229.303 397.208 229.146C394.497 226.854 395.906 227.874 392.461 228.959C387.442 230.54 383.773 228.805 384.733 223.106C385.064 221.156 386.807 220.022 388.317 218.972C386.213 215.417 385.764 212.58 390.213 211.075ZM390.745 227.302C391.637 226.857 392.449 226.578 392.919 225.712C393.238 223.77 391.221 222.078 389.8 220.94C388.538 222.163 386.104 224.406 388.074 226.372C388.689 226.984 389.873 227.303 390.745 227.302ZM391.221 217.361C391.986 216.477 392.559 215.968 392.783 214.834C392.37 213.587 391.992 213.54 390.709 213.331C389.253 214.491 388.91 215.224 390.054 216.864C390.559 217.187 390.642 217.285 391.221 217.361Z" fill="#FBFBFB"/>
<path d="M328.224 211.331C333.571 211.313 337.001 210.651 338.688 216.509C338.608 216.861 338.522 217.212 338.434 217.562C337.722 220.272 336.735 220.703 334.428 222.044C335.763 223.361 339.261 227.294 339.494 229.089L339.095 229.49C338.076 229.665 337.468 229.369 336.484 229.037C334.729 226.44 332.895 223.897 330.983 221.411C330.96 223.01 331.267 228.513 330.7 229.333C329.861 229.59 329.678 229.486 328.868 229.197C327.817 227.975 328.263 214.22 328.224 211.331ZM334.726 219.042C337.813 215.191 334.251 214.055 330.901 213.816C330.983 215.26 330.806 218.164 331.22 219.077C332.443 220.038 333.285 219.498 334.726 219.042Z" fill="#FBFBFB"/>
<path d="M247.79 210.524C248.475 210.709 259.411 222.249 261.06 223.949C260.876 221.052 261.08 215.373 260.93 212.267C261.121 211.96 261.284 211.698 261.42 211.481C262.421 211.064 261.992 211.096 263.034 211.349C263.983 212.589 263.703 226.72 263.792 229.359C263.719 229.61 263.626 229.64 263.418 229.865C262.209 229.696 252.452 218.711 250.435 216.972C250.575 219.514 251.289 228.529 249.2 229.629C248.982 229.538 248.366 229.322 248.32 229.195C247.393 226.636 247.576 212.898 247.79 210.524Z" fill="#FBFBFB"/>
<path d="M430.383 210.568C431.435 211.15 438.022 227.149 439.647 229.837C432.599 228.585 437.006 225.138 431.668 224.933L426.705 224.959C425.778 226.965 425.32 229.09 422.977 229.524L422.481 229.157C422.002 227.014 429.003 213.357 430.383 210.568ZM430.868 222.25L432.215 222.384L432.613 221.998C432.631 220.635 431.195 217.74 430.46 216.83C429.68 218.244 428.114 220.483 428.357 221.931C429.169 222.616 429.518 222.311 430.868 222.25Z" fill="#FBFBFB"/>
<path d="M356.386 210.547C357.05 210.923 364.424 227.504 365.543 229.749C364.368 229.457 363.47 229.398 362.276 229.291C360.306 225.427 361.074 224.773 356.486 224.951C355.16 224.972 353.836 225.007 352.513 225.054C351.907 226.43 351.296 227.802 350.673 229.169C350.023 229.37 348.17 229.514 347.408 229.593C350.336 224.114 353.721 216.299 356.386 210.547ZM353.588 222.647C354.61 222.505 355.762 222.287 356.77 222.414C357.491 222.385 358.081 222.351 358.802 222.273C358.988 221.481 357.009 217.314 356.421 216.845C355.491 218.764 354.557 220.753 353.588 222.647Z" fill="#FBFBFB"/>
<path d="M545.244 211.314C548.228 211.278 551.451 210.988 553.918 213.034C555.974 214.739 556.573 217.725 554.627 219.785C552.63 221.903 550.692 221.984 547.983 222.118C548.021 224.051 548.497 228.274 547.114 229.636C544.187 229.145 545.413 214.507 545.244 211.314ZM552.086 218.801C554.594 215.003 551.371 213.977 548.131 213.75C547.968 215.595 547.436 217.827 548.544 219.188C549.38 219.641 550.077 219.47 550.972 219.197C551.348 219.078 551.72 218.946 552.086 218.801Z" fill="#FBFBFB"/>
<path d="M532.432 211.275C536.323 211.224 545.69 211.749 542.219 219.196C541.177 221.433 537.499 221.983 535.159 222.388C535.212 224.124 535.304 226.006 535.245 227.736C535.201 229.033 535.227 228.834 534.424 229.532C534.022 229.571 533.833 229.681 533.517 229.391C531.895 227.91 532.571 214.195 532.432 211.275ZM539.109 218.92C541.555 215.075 538.923 214.109 535.39 213.811C535.304 215.191 535.005 217.679 535.463 218.841C536.615 220.004 537.652 219.428 539.109 218.92Z" fill="#FBFBFB"/>
<path d="M296.657 210.894C299.697 212.073 297.912 217.324 298.397 220.225C299.685 227.931 293.139 232.619 286.836 227.702C284.382 225.787 285.109 217.362 285.153 214.496C285.106 213.562 285.104 213.238 285.219 212.304C285.7 211.552 285.892 211.519 286.715 211.229C289.377 211.872 286.235 223.668 289.024 225.833C298.494 233.181 294.17 213.377 296.657 210.894Z" fill="#FBFBFB"/>
<path d="M515.494 211.017L517.101 211.419C519.322 213.601 515.18 227.7 521.346 227.329C528.69 226.886 523.916 214.152 525.963 211.42C527.041 211.165 526.772 211.06 527.647 211.431C528.294 212.358 528.149 214.181 528.17 215.389C528.19 218.236 528.527 224.898 527.236 226.86C523.526 232.305 514.185 229.42 515.033 222.413C515.334 219.935 514.489 212.868 515.494 211.017Z" fill="#FBFBFB"/>
<path d="M575.876 211.23C578.756 211.466 583.016 211.046 585.668 211.812C586.162 212.568 586.067 212.21 585.961 213.181C584.694 214.281 580.386 213.952 578.534 213.932L578.481 218.227C580.791 218.26 582.711 218.308 585.01 218.517C585.769 219.16 585.521 218.839 585.881 219.894L585.583 220.403C583.53 221.25 579.999 219.991 578.623 221.35L578.62 222.295C578.649 223.585 578.514 225.32 578.452 226.641C580.428 226.731 585.01 226.701 586.425 227.843L586.398 228.344C585.128 229.773 578.407 229.275 575.878 229.441C575.958 223.371 575.958 217.3 575.876 211.23Z" fill="#FBFBFB"/>
<path d="M453.28 211.366C455.558 211.336 460.923 211.098 462.837 211.524C463.434 212.21 463.262 212.011 463.442 212.991L462.982 213.583C461.377 214.264 457.901 214.014 455.98 213.984C456.075 215.405 455.98 216.896 455.921 218.325C457.466 218.283 461.073 218.241 462.5 218.393C463.168 219.003 462.979 218.677 463.114 219.729C461.948 222.168 458.131 219.739 456.128 221.094L456.042 221.885L456.004 226.707C459.581 227.011 459.968 226.595 463.643 227.724L463.72 228.348C461.697 229.283 455.983 229.281 453.393 229.442C453.319 223.352 453.463 217.503 453.28 211.366Z" fill="#FBFBFB"/>
<path d="M413.769 211.096C416.274 211.022 419.01 211.402 420.02 214.095C419.01 215.873 413.441 212.431 412.422 215.181C413.22 218.982 417.683 218.287 419.101 220.157C423.018 225.325 419.459 229.651 413.911 229.639C412.954 229.332 411.796 228.853 410.839 228.489C409.911 227.013 409.208 226.275 409.465 224.595C410.174 223.842 409.825 224.006 410.75 223.894C412.871 224.575 412.502 227.488 415.37 227.32C416.28 226.827 417.4 225.933 417.734 224.945C419.128 220.527 410.694 220.693 409.843 217.222C409.108 214.222 411.258 211.949 413.769 211.096Z" fill="#FBFBFB"/>
<path d="M505.624 211.061C507.792 211.177 509.84 211.4 510.956 213.594C510.921 214.573 511.071 214.205 510.357 214.963C508.552 215.059 508.191 213.99 506.49 213.667C506.126 213.493 504.454 214.403 504.327 214.647C501.996 219.136 512.749 218.612 511.993 223.611C511.195 228.87 508.826 229.791 504.428 229.56C502.292 228.708 500.106 226.73 500.534 224.237L501.169 223.965C503.447 224.195 502.699 224.81 504.401 226.738C506.9 227.844 509.323 226.198 509.148 223.644C507.913 220.179 498.026 219.938 501.692 213.359C502.54 211.836 504.064 211.462 505.624 211.061Z" fill="#FBFBFB"/>
<path d="M307.105 211.045C308.964 210.938 313.374 212.352 312.91 214.439C310.683 215.467 305.749 211.612 305.522 215.975C307.336 219.874 313.844 218.4 313.256 224.06C312.777 228.684 310.237 229.916 305.942 229.525C303.8 228.759 300.793 225.862 302.896 223.89C304.724 223.733 304.902 225.438 305.903 226.683C308.795 228.239 310.81 225.854 310.447 223.087C309.823 221.518 306.187 220.331 304.916 219.557C300.429 216.819 302.518 212.2 307.105 211.045Z" fill="#FBFBFB"/>
<path d="M593.361 211.065C595.39 211.018 597.52 211.414 598.95 212.987C599.254 214.089 599.272 213.632 598.876 214.71C596.826 215.316 592.531 211.6 591.999 216.104C593.246 218.819 597.313 218.736 598.985 220.789C600.663 222.845 599.978 226.92 597.869 228.488C596.209 229.722 594.734 229.744 592.797 229.561C590.673 228.843 587.453 226.253 589.131 223.997C592.161 223.475 591.426 228.906 595.786 226.615C600.203 224.469 594.956 221.453 592.805 220.188C587.76 217.22 587.299 213.259 593.361 211.065Z" fill="#FBFBFB"/>
<path d="M490.724 211.033L491.229 211.493C491.48 213.292 486.301 219.836 485.917 222.271C485.601 224.278 486.109 227.118 485.693 229.037C485.631 229.323 485.161 229.358 484.777 229.463C481.787 228.321 484.419 223.722 481.776 219.267C480.783 217.385 477.578 213.208 477.867 211.428C480.836 210.354 483.383 216.435 484.538 218.546C485.433 216.769 486.842 213.769 488.086 212.353L488.224 212.198C489.04 211.278 489.45 211.245 490.724 211.033Z" fill="#FBFBFB"/>
<path d="M441.171 211.299C444.356 211.41 447.381 210.866 450.356 212.017L450.19 211.962L450.873 212.853C449.543 214.055 445.606 213.971 443.931 213.977C443.998 215.351 443.957 216.976 443.957 218.37C446.199 218.262 447.682 217.983 449.724 218.903C450.258 219.712 450.193 219.364 450.066 220.209C449.242 220.901 449.65 220.734 448.506 220.79L443.883 220.788C443.966 222.884 444.577 228.166 443.18 229.49L441.922 229.33C440.743 228.075 441.346 214.401 441.171 211.299Z" fill="#FBFBFB"/>
<path d="M315.188 211.273C317.501 211.55 324.741 210.671 325.967 211.914C326.074 213.107 326.23 212.85 325.693 213.715C324.73 214.182 322.957 213.921 321.817 213.848C321.92 217.945 321.838 222.346 321.832 226.466C321.861 227.548 322.068 228.335 321.578 229.151C320.789 229.423 320.452 229.328 319.646 229.224C318.827 228.122 319.238 216.501 319.028 213.86C317.847 213.915 316.059 214.213 315.194 213.53C314.771 212.658 314.963 212.224 315.188 211.273Z" fill="#FBFBFB"/>
<path d="M465.162 211.46C467.268 211.389 474.845 210.769 475.924 211.974C475.98 212.983 476.118 212.86 475.714 213.665C474.677 214.174 473.034 213.959 471.826 213.907L471.803 227.352C471.891 228.474 472.045 228.299 471.584 229.167C470.695 229.447 470.58 229.478 469.649 229.307C468.884 227.984 469.182 216.28 469.076 213.727C467.909 213.772 466.039 214.114 465.233 213.54C464.843 212.504 464.987 212.688 465.162 211.46Z" fill="#FBFBFB"/>
<path d="M368.758 210.812L369.537 211.282C370.379 212.644 369.966 224.198 369.927 226.688C371.558 226.756 375.014 226.534 375.812 227.959C375.505 228.863 375.537 228.642 374.766 229.351C372.007 229.258 369.951 229.241 367.183 229.355C367.47 224.06 367.015 218.656 367.345 213.374C367.446 211.821 367.727 211.658 368.758 210.812Z" fill="#FBFBFB"/>
<path d="M559.504 210.786L560.434 211.254C561.395 212.647 560.904 224.197 560.839 226.694C562.576 226.756 565.569 226.487 566.641 227.816C566.44 228.838 566.541 228.51 565.796 229.341C563.07 229.248 561.002 229.283 558.287 229.394C558.325 224.335 558.116 219.214 558.275 214.15C558.331 212.35 558.192 212.01 559.504 210.786Z" fill="#FBFBFB"/>
<path d="M241.595 210.95L242.918 211.465C244.102 213.305 243.373 225.413 243.56 228.286C243.604 228.972 242.754 229.417 242.165 229.868L241.316 229.406C240.938 228.846 240.88 228.416 240.866 227.754C240.757 222.502 240.742 217.202 240.983 211.953C240.983 211.953 241.552 211.021 241.595 210.95Z" fill="#FBFBFB"/>
<path d="M569.648 210.854C570.413 211.084 570.951 211.147 571.379 211.829C571.619 214.013 571.805 227.957 571.317 229.412C570.475 229.585 570.366 229.589 569.521 229.427C569.072 228.87 568.871 228.67 568.93 227.881C569.143 225.08 568.245 212.46 569.648 210.854Z" fill="#FBFBFB"/>
<path d="M343.441 210.84C343.825 210.933 345.098 211.337 345.139 211.755C345.683 217.257 345.376 222.998 345.438 228.544C345.447 229.139 344.625 229.505 344.176 229.824C343.515 229.481 343.216 229.391 342.868 228.726C342.835 225.654 342.342 212.66 343.441 210.84Z" fill="#FBFBFB"/>
<path d="M112.544 0H112.882C114.195 1.12146 119.168 3.81385 121.022 4.86923C126.539 7.97692 132.036 11.1208 137.512 14.3007L194.85 47.4563L219.27 61.4099C222.706 63.4036 228.347 66.4883 231.437 68.6313C231.898 82.889 231.644 99.5415 231.652 113.915L231.791 206.687C223.026 211.162 212.918 217.376 204.219 222.344L143.597 257.372L124.53 268.491C121.248 270.395 116.114 273.487 112.697 275.018C105.12 271.584 94.0577 264.642 86.4497 260.326L23.4992 223.981L8.17554 215.182C6.20051 214.042 1.94711 211.436 0 210.591V64.7434C2.70794 63.5612 10.2397 58.4168 13.3904 56.5882L52.5942 33.7747L96.0334 8.78634C99.3822 6.87029 102.768 5.01952 106.188 3.23513C108.167 2.21723 110.773 1.11513 112.544 0ZM111.631 199.783C111.3 194.474 111.431 188.254 111.428 182.872L111.399 126.686C111.397 121.956 111.23 115.734 111.456 111.11C117.339 116.647 123.949 123.972 129.654 129.894C141.782 142.351 153.822 154.895 165.772 167.523C173.92 175.885 182.001 184.312 190.013 192.805C193.9 196.847 200.116 202.917 203.544 207.192L203.831 207.216C204.184 204.538 203.783 197.575 203.791 194.687C203.811 187.91 203.8 181.075 203.797 174.295L203.799 108.499C203.795 98.0067 203.382 83.2611 203.926 73.0082L184.957 73.0472L184.949 131.924C184.955 140.354 185.441 153.286 184.902 161.238C156.267 132.04 128.306 102.017 100.114 72.3872C97.7622 69.9155 94.9924 66.7703 92.453 64.5634C91.9955 69.4039 92.3449 78.576 92.3877 83.8425L92.4359 115.478L92.4268 171.589C92.4232 180.553 92.1337 191.153 92.4309 199.964C98.8309 199.938 105.231 199.877 111.631 199.783Z" fill="#FBFBFB"/>
</svg>
