<svg width="232" height="276" viewBox="0 0 232 276" fill="none" xmlns="http://www.w3.org/2000/svg">
<path d="M152.12 75H173V207.3L81.0196 116.4V201H60.1396V68.7L152.12 159.6V75Z" fill="#FEF0E8"/>
<path fill-rule="evenodd" clip-rule="evenodd" d="M112.882 0C114.195 1.12146 119.168 3.81376 121.022 4.86914C126.539 7.97674 132.036 11.121 137.512 14.3008L194.85 47.4561L219.27 61.4102C222.705 63.4037 228.346 66.4879 231.437 68.6309C231.898 82.8886 231.644 99.5415 231.652 113.915L231.791 206.687C223.026 211.162 212.918 217.376 204.219 222.344L143.597 257.372L124.53 268.491C121.248 270.395 116.114 273.487 112.697 275.018C105.12 271.584 94.0572 264.642 86.4492 260.326L23.499 223.981L8.17578 215.182C6.20075 214.042 1.94711 211.436 0 210.591V64.7432C2.70801 63.5609 10.24 58.4165 13.3906 56.5879L52.5938 33.7744L96.0332 8.78613C99.382 6.87008 102.768 5.01974 106.188 3.23535C108.167 2.2175 110.773 1.11507 112.544 0H112.882ZM60 201.3H80.8799V116.7L172.86 207.6V75.2998H151.98V159.9L60 69V201.3Z" fill="#F16425"/>
</svg>
