<svg width="83" height="99" viewBox="0 0 83 99" fill="none" xmlns="http://www.w3.org/2000/svg">
<path d="M1.66699 24.5862L40.6325 2L81.667 25.7931V73.3793L40.6325 97L1.66699 74.4138V24.5862Z" fill="#F16425" stroke="#FDF2F2" stroke-width="2"/>
<g clip-path="url(#clip0_127_565)">
<path d="M39.667 32.5C38.2842 32.5 37.167 33.6172 37.167 35V35.1797V42.9609C37.167 43.3984 36.8154 43.75 36.3779 43.75C36.0967 43.75 35.8311 43.6016 35.6904 43.3516L31.9404 36.7969C26.1514 39.6484 22.167 45.6094 22.167 52.5V57.5H62.167V52.3125C62.0967 45.5 58.1279 39.625 52.3936 36.7969L48.6436 43.3516C48.5029 43.6016 48.2373 43.75 47.9561 43.75C47.5186 43.75 47.167 43.3984 47.167 42.9609V35.1797V35C47.167 33.6172 46.0498 32.5 44.667 32.5H39.667ZM20.9639 60C20.2451 60 19.667 60.5781 19.667 61.2969C19.667 61.6641 19.8232 62.0156 20.1201 62.2266C21.8154 63.4688 28.4014 67.5 42.167 67.5C55.9326 67.5 62.5186 63.4688 64.2139 62.2266C64.5107 62.0078 64.667 61.6641 64.667 61.2969C64.667 60.5781 64.0889 60 63.3701 60H20.9639Z" fill="#FDF2F2"/>
</g>
<defs>
<clipPath id="clip0_127_565">
<rect width="45" height="40" fill="white" transform="translate(19.667 30)"/>
</clipPath>
</defs>
</svg>
