<svg width="166" height="166" viewBox="0 0 166 166" fill="none" xmlns="http://www.w3.org/2000/svg">
<g clip-path="url(#clip0_217_765)">
<path d="M152.539 7.74526C145.491 0.697055 134.098 0.697055 127.05 7.74526L117.363 17.4003L148.87 48.9081L158.558 39.2208C165.606 32.1726 165.606 20.7796 158.558 13.7314L152.539 7.74526ZM56.246 78.5492C54.2828 80.5124 52.7702 82.9261 51.9012 85.5974L42.3749 114.176C41.4415 116.944 42.1818 120.002 44.2415 122.094C46.3013 124.186 49.3587 124.894 52.1587 123.96L80.7377 114.434C83.3768 113.565 85.7905 112.052 87.7859 110.089L141.629 56.2138L110.089 24.6738L56.246 78.5492ZM31.6577 21.3589C14.6004 21.3589 0.761475 35.1979 0.761475 52.2552L0.761475 134.645C0.761475 151.702 14.6004 165.541 31.6577 165.541H114.048C131.105 165.541 144.944 151.702 144.944 134.645V103.749C144.944 98.0524 140.342 93.4502 134.645 93.4502C128.949 93.4502 124.346 98.0524 124.346 103.749L124.346 134.645C124.346 140.342 119.744 144.944 114.048 144.944H31.6577C25.9612 144.944 21.359 140.342 21.359 134.645L21.359 52.2552C21.359 46.5587 25.9612 41.9564 31.6577 41.9564H62.554C68.2505 41.9564 72.8527 37.3542 72.8527 31.6577C72.8527 25.9612 68.2505 21.3589 62.554 21.3589L31.6577 21.3589Z" fill="#FDF2F2" fill-opacity="0.3"/>
</g>
<defs>
<clipPath id="clip0_217_765">
<rect width="164.78" height="164.78" fill="white" transform="translate(0.761475 0.761475)"/>
</clipPath>
</defs>
</svg>
