<svg width="80" height="80" viewBox="0 0 80 80" fill="none" xmlns="http://www.w3.org/2000/svg">
<path id="Vector" d="M25.7656 3.84373C24.5625 0.937483 21.3906 -0.609392 18.3594 0.218733L4.60938 3.96873C1.89062 4.71873 0 7.18748 0 9.99998C0 48.6562 31.3438 80 70 80C72.8125 80 75.2812 78.1094 76.0312 75.3906L79.7812 61.6406C80.6094 58.6094 79.0625 55.4375 76.1562 54.2344L61.1562 47.9844C58.6094 46.9219 55.6562 47.6562 53.9219 49.7969L47.6094 57.5C36.6094 52.2969 27.7031 43.3906 22.5 32.3906L30.2031 26.0937C32.3438 24.3437 33.0781 21.4062 32.0156 18.8594L25.7656 3.85936V3.84373Z" fill="#F16425"/>
</svg>
