<svg width="32" height="32" viewBox="0 0 32 32" fill="none" xmlns="http://www.w3.org/2000/svg">
<path id="Vector" d="M10.3058 1.53884C9.82457 0.376393 8.55587 -0.24233 7.34343 0.0889053L1.84367 1.58884C0.756217 1.88883 0 2.87628 0 4.00123C0 19.4631 12.5369 32 27.9988 32C29.1237 32 30.1112 31.2438 30.4112 30.1563L31.9111 24.6566C32.2423 23.4441 31.6236 22.1754 30.4612 21.6942L24.4614 19.1943C23.4427 18.7693 22.2615 19.0631 21.5678 19.9193L19.0429 23.0004C14.6431 20.9192 11.0808 17.3569 8.9996 12.9571L12.0807 10.4385C12.9369 9.73848 13.2307 8.56353 12.8057 7.54483L10.3058 1.54509V1.53884Z" fill="#EDEDED"/>
</svg>
