<svg width="100%" height="100%" viewBox="0 0 196 60" fill="none" xmlns="http://www.w3.org/2000/svg" preserveAspectRatio="none"><rect width="195.095" height="60" rx="8" fill="#0069FF" data-color-group="0"/><path d="M35.2757 36.16C34.401 36.16 33.5637 36.0373 32.7637 35.792C31.9637 35.536 31.329 35.2107 30.8597 34.816L31.5797 33.2C32.0277 33.552 32.5824 33.8453 33.2437 34.08C33.905 34.3147 34.5824 34.432 35.2757 34.432C35.8624 34.432 36.337 34.368 36.6997 34.24C37.0624 34.112 37.329 33.9413 37.4997 33.728C37.6704 33.504 37.7557 33.2533 37.7557 32.976C37.7557 32.6347 37.633 32.3627 37.3877 32.16C37.1424 31.9467 36.8224 31.7813 36.4277 31.664C36.0437 31.536 35.6117 31.4187 35.1317 31.312C34.6624 31.2053 34.1877 31.0827 33.7077 30.944C33.2384 30.7947 32.8064 30.608 32.4117 30.384C32.0277 30.1493 31.713 29.84 31.4677 29.456C31.2224 29.072 31.0997 28.5813 31.0997 27.984C31.0997 27.376 31.2597 26.8213 31.5797 26.32C31.9104 25.808 32.4064 25.4027 33.0677 25.104C33.7397 24.7947 34.5877 24.64 35.6117 24.64C36.2837 24.64 36.9504 24.7253 37.6117 24.896C38.273 25.0667 38.849 25.312 39.3397 25.632L38.6837 27.248C38.1824 26.9493 37.665 26.7307 37.1317 26.592C36.5984 26.4427 36.0864 26.368 35.5957 26.368C35.0197 26.368 34.5504 26.4373 34.1877 26.576C33.8357 26.7147 33.5744 26.896 33.4037 27.12C33.2437 27.344 33.1637 27.6 33.1637 27.888C33.1637 28.2293 33.281 28.5067 33.5157 28.72C33.761 28.9227 34.0757 29.0827 34.4597 29.2C34.8544 29.3173 35.2917 29.4347 35.7717 29.552C36.2517 29.6587 36.7264 29.7813 37.1957 29.92C37.6757 30.0587 38.1077 30.24 38.4917 30.464C38.8864 30.688 39.201 30.992 39.4357 31.376C39.681 31.76 39.8037 32.2453 39.8037 32.832C39.8037 33.4293 39.6384 33.984 39.3077 34.496C38.9877 34.9973 38.4917 35.4027 37.8197 35.712C37.1477 36.0107 36.2997 36.16 35.2757 36.16ZM44.6219 36V26.56H40.9099V24.8H50.4139V26.56H46.7019V36H44.6219ZM50.4684 36L55.5084 24.8H57.5564L62.6124 36H60.4364L56.1004 25.904H56.9324L52.6124 36H50.4684ZM52.7884 33.408L53.3484 31.776H59.3964L59.9564 33.408H52.7884ZM64.6768 36V24.8H69.2848C70.2768 24.8 71.1248 24.96 71.8288 25.28C72.5435 25.6 73.0928 26.0587 73.4768 26.656C73.8608 27.2533 74.0528 27.9627 74.0528 28.784C74.0528 29.6053 73.8608 30.3147 73.4768 30.912C73.0928 31.4987 72.5435 31.952 71.8288 32.272C71.1248 32.5813 70.2768 32.736 69.2848 32.736H65.8288L66.7568 31.792V36H64.6768ZM72.0048 36L69.1728 31.936H71.3968L74.2448 36H72.0048ZM66.7568 32.016L65.8288 31.024H69.1888C70.1061 31.024 70.7941 30.8267 71.2528 30.432C71.7221 30.0373 71.9568 29.488 71.9568 28.784C71.9568 28.0693 71.7221 27.52 71.2528 27.136C70.7941 26.752 70.1061 26.56 69.1888 26.56H65.8288L66.7568 25.536V32.016ZM79.1357 36V26.56H75.4237V24.8H84.9277V26.56H81.2157V36H79.1357ZM100.063 24.8H102.143V36H100.063V24.8ZM94.2706 36H92.1906V24.8H94.2706V36ZM100.223 31.2H94.0946V29.424H100.223V31.2ZM107.704 29.456H113.272V31.168H107.704V29.456ZM107.864 34.256H114.184V36H105.784V24.8H113.96V26.544H107.864V34.256ZM117.142 36V24.8H121.75C122.742 24.8 123.59 24.96 124.294 25.28C125.009 25.6 125.558 26.0587 125.942 26.656C126.326 27.2533 126.518 27.9627 126.518 28.784C126.518 29.6053 126.326 30.3147 125.942 30.912C125.558 31.4987 125.009 31.952 124.294 32.272C123.59 32.5813 122.742 32.736 121.75 32.736H118.294L119.222 31.792V36H117.142ZM124.47 36L121.638 31.936H123.862L126.71 36H124.47ZM119.222 32.016L118.294 31.024H121.654C122.572 31.024 123.26 30.8267 123.718 30.432C124.188 30.0373 124.422 29.488 124.422 28.784C124.422 28.0693 124.188 27.52 123.718 27.136C123.26 26.752 122.572 26.56 121.654 26.56H118.294L119.222 25.536V32.016ZM131.406 29.456H136.974V31.168H131.406V29.456ZM131.566 34.256H137.886V36H129.486V24.8H137.662V26.544H131.566V34.256Z" fill="white" data-color-group="1"/><path d="M164.933 30.3903L160.464 34.8599C160.248 35.0755 159.899 35.0755 159.683 34.8599L159.162 34.3386C158.946 34.1234 158.946 33.7746 159.161 33.5589L162.703 30L159.161 26.4411C158.946 26.2254 158.946 25.8766 159.162 25.6614L159.683 25.1401C159.899 24.9245 160.248 24.9245 160.464 25.1401L164.933 29.6097C165.149 29.8252 165.149 30.1747 164.933 30.3903Z" fill="white" data-color-group="1"/></svg>