<svg id="Layer_1" xmlns="http://www.w3.org/2000/svg" viewBox="0 0 285.8 80.43" width="100%" height="100%" preserveAspectRatio="none"><defs><style>.cls-1{fill:#004750;}</style></defs><path class="cls-1" d="M34.74.17A31.43,31.43,0,0,0,0,31.37V78.66H14.83V65.3L48,54.35V78.66H62.8V31.91c0-16.14-12-30.07-28.06-31.74M48,38.89,14.83,50V31.77A16.57,16.57,0,1,1,48,31.62Z"/><path class="cls-1" d="M109.75.17A31.43,31.43,0,0,0,75,31.37V78.66H89.84V65.3L123,54.35V78.66h14.83V31.91c0-16.14-12-30.07-28.06-31.74M123,38.89,89.84,50V31.77A16.57,16.57,0,1,1,123,31.62Z"/><path class="cls-1" d="M178.25,1.91H149.14V78.66H164v-14h13.77c16.15,0,30.07-12,31.74-28A31.44,31.44,0,0,0,178.25,1.91m0,48H164V16.74h14.44a16.57,16.57,0,1,1-.15,33.14"/><path class="cls-1" d="M274.9,57.62a24.74,24.74,0,0,1-18.16,7.82A25,25,0,1,1,274.41,22.8L285,12.2a40,40,0,1,0-28.27,68.23A40.16,40.16,0,0,0,285.8,67.92Z"/></svg>